<svg width="31" height="31" viewBox="0 0 31 31" fill="none" xmlns="http://www.w3.org/2000/svg">
<path d="M17.4378 17.4373C16.3614 17.4373 15.4465 17.0606 14.693 16.3071C13.9396 15.5537 13.5628 14.6387 13.5628 13.5623C13.5628 12.4859 13.9396 11.571 14.693 10.8175C15.4465 10.0641 16.3614 9.68734 17.4378 9.68734C18.5142 9.68734 19.4291 10.0641 20.1826 10.8175C20.9361 11.571 21.3128 12.4859 21.3128 13.5623C21.3128 14.6387 20.9361 15.5537 20.1826 16.3071C19.4291 17.0606 18.5142 17.4373 17.4378 17.4373ZM7.10449 21.9582C6.5663 21.9582 6.10883 21.7698 5.7321 21.3931C5.35536 21.0163 5.16699 20.5589 5.16699 20.0207V7.104C5.16699 6.56581 5.35536 6.10834 5.7321 5.73161C6.10883 5.35487 6.5663 5.1665 7.10449 5.1665H27.7712C28.3094 5.1665 28.7668 5.35487 29.1436 5.73161C29.5203 6.10834 29.7087 6.56581 29.7087 7.104V20.0207C29.7087 20.5589 29.5203 21.0163 29.1436 21.3931C28.7668 21.7698 28.3094 21.9582 27.7712 21.9582H7.10449ZM10.3337 20.0207H24.542C24.542 19.1165 24.8541 18.3523 25.4785 17.728C26.1028 17.1037 26.867 16.7915 27.7712 16.7915V10.3332C26.867 10.3332 26.1028 10.021 25.4785 9.39671C24.8541 8.77241 24.542 8.00817 24.542 7.104H10.3337C10.3337 8.00817 10.0215 8.77241 9.3972 9.39671C8.7729 10.021 8.00866 10.3332 7.10449 10.3332V16.7915C8.00866 16.7915 8.7729 17.1037 9.3972 17.728C10.0215 18.3523 10.3337 19.1165 10.3337 20.0207ZM25.8337 25.8332H3.22949C2.6913 25.8332 2.23383 25.6448 1.8571 25.2681C1.48036 24.8913 1.29199 24.4339 1.29199 23.8957V9.0415H3.22949V23.8957H25.8337V25.8332ZM7.10449 20.0207V7.104V20.0207Z" fill="white"/>
</svg>
