<svg width="63" height="63" viewBox="0 0 63 63" fill="none" xmlns="http://www.w3.org/2000/svg">
<rect x="0.338135" width="62.3238" height="62.3238" rx="31.1619" fill="#D80027" fill-opacity="0.1"/>
<path d="M14.3381 41.1396L31.759 11L49.1798 41.1396H14.3381ZM31.9131 36.3219C32.2472 36.3219 32.5362 36.1998 32.7803 35.9557C33.0244 35.7116 33.1465 35.4097 33.1465 35.05C33.1465 34.716 33.0244 34.4333 32.7803 34.2021C32.5362 33.9708 32.2472 33.8552 31.9131 33.8552C31.5791 33.8552 31.29 33.9773 31.0459 34.2214C30.8019 34.4655 30.6798 34.7545 30.6798 35.0885C30.6798 35.4226 30.8019 35.7116 31.0459 35.9557C31.29 36.1998 31.5791 36.3219 31.9131 36.3219ZM30.7569 32.0823H33.0694V23.6417H30.7569V32.0823Z" fill="#D80027"/>
</svg>
