<svg width="30" height="30" viewBox="0 0 30 30" fill="none" xmlns="http://www.w3.org/2000/svg">
<path d="M20.499 9.5625V5.6875H9.49902V9.5625H7.37402V3.5625H22.624V9.5625H20.499ZM4.43652 11.6875H25.5615H7.37402H4.43652ZM22.9678 14.8438C23.2386 14.8438 23.4782 14.7396 23.6865 14.5312C23.8949 14.3229 23.999 14.0833 23.999 13.8125C23.999 13.5417 23.8949 13.3021 23.6865 13.0938C23.4782 12.8854 23.2386 12.7813 22.9678 12.7813C22.6969 12.7813 22.4574 12.8854 22.249 13.0938C22.0407 13.3021 21.9365 13.5417 21.9365 13.8125C21.9365 14.0833 22.0407 14.3229 22.249 14.5312C22.4574 14.7396 22.6969 14.8438 22.9678 14.8438ZM20.499 24.4375V18.875H9.49902V24.4375H20.499ZM22.624 26.5312H7.37402V20.9062H2.31152V13.0625C2.31152 12.0833 2.64486 11.2552 3.31152 10.5781C3.97819 9.90104 4.81152 9.5625 5.81152 9.5625H24.1865C25.1865 9.5625 26.0199 9.90104 26.6865 10.5781C27.3532 11.2552 27.6865 12.0833 27.6865 13.0625V20.9062H22.624V26.5312ZM25.5615 18.7812V13.0312C25.5615 12.6562 25.4313 12.3385 25.1709 12.0781C24.9105 11.8177 24.5824 11.6875 24.1865 11.6875H5.81152C5.41569 11.6875 5.08756 11.8177 4.82715 12.0781C4.56673 12.3385 4.43652 12.6667 4.43652 13.0625V18.7812H7.37402V16.75H22.624V18.7812H25.5615Z" fill="#898989"/>
</svg>
