<svg width="43" height="43" viewBox="0 0 43 43" fill="none" xmlns="http://www.w3.org/2000/svg">
<rect width="43" height="43" rx="10" fill="#FFE4E6"/>
<path d="M32 15.5V28.5C32 28.9 31.85 29.25 31.55 29.55C31.25 29.85 30.9 30 30.5 30H13.5C13.1 30 12.75 29.85 12.45 29.55C12.15 29.25 12 28.9 12 28.5V15.5C12 15.1 12.15 14.75 12.45 14.45C12.75 14.15 13.1 14 13.5 14H30.5C30.9 14 31.25 14.15 31.55 14.45C31.85 14.75 32 15.1 32 15.5ZM13.5 18.225H30.5V15.5H13.5V18.225ZM13.5 21.45V28.5H30.5V21.45H13.5Z" fill="black"/>
</svg>
