<svg width="32" height="32" viewBox="0 0 32 32" fill="none" xmlns="http://www.w3.org/2000/svg">
<path d="M16.0667 25.3333L19.8667 21.5667L16.0667 17.8L14.6667 19.2L16.1 20.6333C15.4778 20.6555 14.8722 20.5555 14.2834 20.3333C13.6945 20.1111 13.1667 19.7667 12.7 19.3C12.2556 18.8555 11.9167 18.3444 11.6834 17.7667C11.45 17.1889 11.3334 16.6111 11.3334 16.0333C11.3334 15.6555 11.3834 15.2778 11.4834 14.9C11.5834 14.5222 11.7222 14.1555 11.9 13.8L10.4334 12.3333C10.0556 12.8889 9.7778 13.4778 9.60002 14.1C9.42224 14.7222 9.33335 15.3555 9.33335 16C9.33335 16.8444 9.50002 17.6778 9.83335 18.5C10.1667 19.3222 10.6556 20.0555 11.3 20.7C11.9445 21.3444 12.6667 21.8278 13.4667 22.15C14.2667 22.4722 15.0889 22.6444 15.9334 22.6667L14.6667 23.9333L16.0667 25.3333ZM21.5667 19.6667C21.9445 19.1111 22.2222 18.5222 22.4 17.9C22.5778 17.2778 22.6667 16.6444 22.6667 16C22.6667 15.1555 22.5056 14.3167 22.1834 13.4833C21.8611 12.65 21.3778 11.9111 20.7334 11.2667C20.0889 10.6222 19.3611 10.1444 18.55 9.83332C17.7389 9.52221 16.9111 9.36666 16.0667 9.36666L17.3334 8.06666L15.9334 6.66666L12.1334 10.4333L15.9334 14.2L17.3334 12.8L15.8667 11.3333C16.4667 11.3333 17.0778 11.45 17.7 11.6833C18.3222 11.9167 18.8556 12.2555 19.3 12.7C19.7445 13.1444 20.0834 13.6555 20.3167 14.2333C20.55 14.8111 20.6667 15.3889 20.6667 15.9667C20.6667 16.3444 20.6167 16.7222 20.5167 17.1C20.4167 17.4778 20.2778 17.8444 20.1 18.2L21.5667 19.6667ZM16 29.3333C14.1778 29.3333 12.4556 28.9833 10.8334 28.2833C9.21113 27.5833 7.79446 26.6278 6.58335 25.4167C5.37224 24.2055 4.41669 22.7889 3.71669 21.1667C3.01669 19.5444 2.66669 17.8222 2.66669 16C2.66669 14.1555 3.01669 12.4222 3.71669 10.8C4.41669 9.17777 5.37224 7.76666 6.58335 6.56666C7.79446 5.36666 9.21113 4.41666 10.8334 3.71666C12.4556 3.01666 14.1778 2.66666 16 2.66666C17.8445 2.66666 19.5778 3.01666 21.2 3.71666C22.8222 4.41666 24.2334 5.36666 25.4334 6.56666C26.6334 7.76666 27.5834 9.17777 28.2834 10.8C28.9834 12.4222 29.3334 14.1555 29.3334 16C29.3334 17.8222 28.9834 19.5444 28.2834 21.1667C27.5834 22.7889 26.6334 24.2055 25.4334 25.4167C24.2334 26.6278 22.8222 27.5833 21.2 28.2833C19.5778 28.9833 17.8445 29.3333 16 29.3333ZM16 27.3333C19.1556 27.3333 21.8334 26.2278 24.0334 24.0167C26.2334 21.8055 27.3334 19.1333 27.3334 16C27.3334 12.8444 26.2334 10.1667 24.0334 7.96666C21.8334 5.76666 19.1556 4.66666 16 4.66666C12.8667 4.66666 10.1945 5.76666 7.98335 7.96666C5.77224 10.1667 4.66669 12.8444 4.66669 16C4.66669 19.1333 5.77224 21.8055 7.98335 24.0167C10.1945 26.2278 12.8667 27.3333 16 27.3333Z" fill="#999999"/>
</svg>
