<svg width="18" height="20" viewBox="0 0 18 20" fill="none" xmlns="http://www.w3.org/2000/svg">
<path d="M7.84676 20C5.64509 19.8239 3.78688 18.9212 2.27213 17.2919C0.757376 15.6627 0 13.7208 0 11.4663C0 10.1101 0.312638 8.82871 0.937913 7.62219C1.56319 6.41568 2.43945 5.42492 3.56671 4.64993L4.86129 5.9181C3.89256 6.49934 3.13959 7.28754 2.60238 8.28269C2.06517 9.27785 1.79657 10.3391 1.79657 11.4663C1.79657 13.2277 2.3734 14.7424 3.52708 16.0106C4.68076 17.2787 6.12065 18.0097 7.84676 18.2034V20ZM9.43197 20V18.2034C11.1757 17.9921 12.6156 17.2567 13.7516 15.9974C14.8877 14.738 15.4557 13.2277 15.4557 11.4663C15.4557 9.58168 14.8085 7.98327 13.5139 6.67107C12.2193 5.35887 10.6297 4.69397 8.74504 4.67635H8.19022L9.80185 6.28798L8.61294 7.47688L4.88771 3.72523L8.61294 0L9.80185 1.1889L8.11096 2.85337H8.66578C11.0612 2.85337 13.0911 3.69441 14.7556 5.37649C16.4201 7.05856 17.2523 9.08851 17.2523 11.4663C17.2523 13.7208 16.4993 15.6627 14.9934 17.2919C13.4874 18.9212 11.6336 19.8239 9.43197 20Z" fill="#898989"/>
</svg>
