<svg width="25" height="25" viewBox="0 0 25 25" fill="none" xmlns="http://www.w3.org/2000/svg">
<path d="M4.76562 22.0312C4.27951 22.0312 3.85851 21.8533 3.5026 21.4974C3.1467 21.1415 2.96875 20.7205 2.96875 20.2344V4.76562C2.96875 4.27951 3.1467 3.85851 3.5026 3.5026C3.85851 3.1467 4.27951 2.96875 4.76562 2.96875H20.2344C20.7205 2.96875 21.1415 3.1467 21.4974 3.5026C21.8533 3.85851 22.0312 4.27951 22.0312 4.76562V20.2344C22.0312 20.7205 21.8533 21.1415 21.4974 21.4974C21.1415 21.8533 20.7205 22.0312 20.2344 22.0312H4.76562ZM4.6875 20.3125H20.3125V6.77083H4.6875V20.3125ZM12.5 17.5781C11.1111 17.5781 9.86979 17.2049 8.77604 16.4583C7.68229 15.7118 6.88368 14.7396 6.38021 13.5417C6.88368 12.3438 7.68229 11.3715 8.77604 10.625C9.86979 9.87847 11.1111 9.50521 12.5 9.50521C13.8889 9.50521 15.1302 9.87847 16.224 10.625C17.3177 11.3715 18.1163 12.3438 18.6198 13.5417C18.1163 14.7396 17.3177 15.7118 16.224 16.4583C15.1302 17.2049 13.8889 17.5781 12.5 17.5781ZM12.5 16.276C13.4896 16.276 14.401 16.033 15.2344 15.5469C16.0677 15.0608 16.7188 14.3924 17.1875 13.5417C16.7188 12.691 16.0677 12.0226 15.2344 11.5365C14.401 11.0503 13.4896 10.8073 12.5 10.8073C11.5104 10.8073 10.599 11.0503 9.76563 11.5365C8.93229 12.0226 8.28125 12.691 7.8125 13.5417C8.28125 14.3924 8.93229 15.0608 9.76563 15.5469C10.599 16.033 11.5104 16.276 12.5 16.276ZM12.5 14.8438C12.8646 14.8438 13.1727 14.7179 13.4245 14.4661C13.6762 14.2144 13.8021 13.9062 13.8021 13.5417C13.8021 13.1771 13.6762 12.8689 13.4245 12.6172C13.1727 12.3655 12.8646 12.2396 12.5 12.2396C12.1354 12.2396 11.8273 12.3655 11.5755 12.6172C11.3238 12.8689 11.1979 13.1771 11.1979 13.5417C11.1979 13.9062 11.3238 14.2144 11.5755 14.4661C11.8273 14.7179 12.1354 14.8438 12.5 14.8438Z" fill="#898989"/>
</svg>
