<svg width="43" height="43" viewBox="0 0 43 43" fill="none" xmlns="http://www.w3.org/2000/svg">
<rect width="43" height="43" rx="10" fill="#CDF2DE"/>
<path d="M13.8636 30.1818H29.1364C29.8958 30.1818 30.6242 29.8801 31.1613 29.3431C31.6983 28.806 32 28.0777 32 27.3182V15.8636C32 15.1042 31.6983 14.3758 31.1613 13.8387C30.6242 13.3017 29.8958 13 29.1364 13H13.8636C13.1042 13 12.3758 13.3017 11.8387 13.8387C11.3017 14.3758 11 15.1042 11 15.8636V27.3182C11 28.0777 11.3017 28.806 11.8387 29.3431C12.3758 29.8801 13.1042 30.1818 13.8636 30.1818ZM12.9091 15.8636C12.9091 15.6105 13.0097 15.3677 13.1887 15.1887C13.3677 15.0097 13.6105 14.9091 13.8636 14.9091H29.1364C29.3895 14.9091 29.6323 15.0097 29.8113 15.1887C29.9903 15.3677 30.0909 15.6105 30.0909 15.8636V27.3182C30.0909 27.5713 29.9903 27.8141 29.8113 27.9932C29.6323 28.1722 29.3895 28.2727 29.1364 28.2727H13.8636C13.6105 28.2727 13.3677 28.1722 13.1887 27.9932C13.0097 27.8141 12.9091 27.5713 12.9091 27.3182V15.8636Z" fill="black"/>
<path d="M15.7733 26.3637H18.6369C18.8901 26.3637 19.1329 26.2631 19.3119 26.0841C19.4909 25.9051 19.5915 25.6623 19.5915 25.4091C19.5915 25.156 19.4909 24.9132 19.3119 24.7342C19.1329 24.5552 18.8901 24.4546 18.6369 24.4546H15.7733C15.5201 24.4546 15.2773 24.5552 15.0983 24.7342C14.9193 24.9132 14.8187 25.156 14.8187 25.4091C14.8187 25.6623 14.9193 25.9051 15.0983 26.0841C15.2773 26.2631 15.5201 26.3637 15.7733 26.3637Z" fill="black"/>
<path d="M15.7733 23.5H21.5005C21.7537 23.5 21.9965 23.3995 22.1755 23.2205C22.3545 23.0414 22.4551 22.7987 22.4551 22.5455C22.4551 22.2923 22.3545 22.0495 22.1755 21.8705C21.9965 21.6915 21.7537 21.5909 21.5005 21.5909H15.7733C15.5201 21.5909 15.2773 21.6915 15.0983 21.8705C14.9193 22.0495 14.8187 22.2923 14.8187 22.5455C14.8187 22.7987 14.9193 23.0414 15.0983 23.2205C15.2773 23.3995 15.5201 23.5 15.7733 23.5Z" fill="black"/>
</svg>
