<svg width="45" height="45" viewBox="0 0 45 45" fill="none" xmlns="http://www.w3.org/2000/svg">
<rect width="45" height="45" rx="22.5" fill="#EBDCFF"/>
<path d="M31.8115 27.6977L28.5978 30.9114C28.4207 31.0886 28.1886 31.1771 27.9564 31.1771C27.7243 31.1771 27.4921 31.0886 27.315 30.9114C26.9608 30.5572 26.9608 29.9829 27.315 29.6287L28.9803 27.9634H18.4715C17.9706 27.9634 17.5645 27.5573 17.5645 27.0564C17.5645 26.5554 17.9706 26.1493 18.4715 26.1493H28.9803L27.315 24.484C26.9608 24.1298 26.9608 23.5555 27.315 23.2013C27.6693 22.8471 28.2435 22.8471 28.5978 23.2013L31.8115 26.415C32.1657 26.7692 32.1657 27.3435 31.8115 27.6977Z" fill="#8000E5"/>
<path d="M12.8652 17.8794L16.079 14.6656C16.2561 14.4885 16.4882 14.4 16.7204 14.4C16.9525 14.4 17.1846 14.4885 17.3617 14.6656C17.7159 15.0199 17.7159 15.5942 17.3617 15.9484L15.6964 17.6137H26.2053C26.7062 17.6137 27.1123 18.0198 27.1123 18.5207C27.1123 19.0217 26.7062 19.4278 26.2053 19.4278H15.6964L17.3617 21.093C17.7159 21.4473 17.7159 22.0216 17.3617 22.3758C17.0075 22.73 16.4332 22.73 16.079 22.3758L12.8652 19.1621C12.511 18.8079 12.511 18.2336 12.8652 17.8794Z" fill="#8000E5"/>
</svg>
