<svg width="55" height="55" viewBox="0 0 55 55" fill="none" xmlns="http://www.w3.org/2000/svg">
<rect width="55" height="55" rx="12" fill="#EBDCFF"/>
<path d="M28 40.6875C26.25 40.6875 24.6042 40.3542 23.0625 39.6875C21.5208 39.0208 20.1771 38.1146 19.0312 36.9687C17.8854 35.8229 16.9792 34.4792 16.3125 32.9375C15.6458 31.3958 15.3125 29.75 15.3125 28C15.3125 26.25 15.6458 24.599 16.3125 23.0469C16.9792 21.4948 17.8854 20.151 19.0312 19.0156C20.1771 17.8802 21.5208 16.9792 23.0625 16.3125C24.6042 15.6458 26.25 15.3125 28 15.3125C29.75 15.3125 31.3958 15.6458 32.9375 16.3125C34.4792 16.9792 35.8229 17.8802 36.9687 19.0156C38.1146 20.151 39.0208 21.4948 39.6875 23.0469C40.3542 24.599 40.6875 26.25 40.6875 28C40.6875 29.75 40.3542 31.3958 39.6875 32.9375C39.0208 34.4792 38.1146 35.8229 36.9687 36.9687C35.8229 38.1146 34.4792 39.0208 32.9375 39.6875C31.3958 40.3542 29.75 40.6875 28 40.6875ZM28 38.5625C30.9375 38.5625 33.4323 37.5365 35.4844 35.4844C37.5365 33.4323 38.5625 30.9375 38.5625 28C38.5625 26.7708 38.3542 25.5833 37.9375 24.4375C37.5208 23.2917 36.9271 22.25 36.1562 21.3125L21.3125 36.125C22.2292 36.9375 23.2656 37.5469 24.4219 37.9531C25.5781 38.3594 26.7708 38.5625 28 38.5625ZM19.875 34.6875L34.6875 19.875C33.75 19.0833 32.7083 18.4792 31.5625 18.0625C30.4167 17.6458 29.2292 17.4375 28 17.4375C25.0625 17.4375 22.5677 18.4583 20.5156 20.5C18.4635 22.5417 17.4375 25.0417 17.4375 28C17.4375 29.2292 17.6562 30.4167 18.0937 31.5625C18.5312 32.7083 19.125 33.75 19.875 34.6875Z" fill="#8000E5"/>
</svg>
