<svg width="199" height="55" viewBox="0 0 199 55" fill="none" xmlns="http://www.w3.org/2000/svg">
<g clip-path="url(#clip0_47_668)">
<path d="M171.5 0.5H27.5C12.5883 0.5 0.5 12.5883 0.5 27.5C0.5 42.4117 12.5883 54.5 27.5 54.5H171.5C186.412 54.5 198.5 42.4117 198.5 27.5C198.5 12.5883 186.412 0.5 171.5 0.5Z" fill="#1F1F1F"/>
<path d="M57 23.7909H21V18.1455C21 15.0808 23.6422 12.5 26.7798 12.5H51.2202C54.3578 12.5 57 15.0808 57 18.1455V23.7909Z" fill="#34A853"/>
<path d="M57 29H21V23C21 19.7429 23.6422 17 26.7798 17H51.2202C54.3578 17 57 19.7429 57 23V29Z" fill="#FBBC04"/>
<path d="M57 34H21V28C21 24.7429 23.6422 22 26.7798 22H51.2202C54.3578 22 57 24.7429 57 28V34Z" fill="#EA4335"/>
<path d="M21 25.2411L43.8493 30.4027C46.4795 31.0479 49.4384 30.4027 51.5753 28.7897L57 24.9185V37.0159C57 40.0806 54.3699 42.5001 51.2466 42.5001H26.7534C23.6301 42.5001 21 40.0806 21 37.0159V25.2411Z" fill="url(#paint0_linear_47_668)"/>
<path d="M69.1948 21.4999L72.7048 12.1919H74.3298L77.8528 21.4999H76.2798L75.4218 19.1079H71.6258L70.7678 21.4999H69.1948ZM73.1338 14.9349L72.1068 17.7819H74.9408L73.9138 14.9349L73.5628 13.8689H73.4848L73.1338 14.9349ZM81.5141 21.7079C80.9161 21.7079 80.3745 21.5606 79.8891 21.2659C79.4125 20.9626 79.0311 20.5466 78.7451 20.0179C78.4678 19.4806 78.3291 18.8696 78.3291 18.1849C78.3291 17.5002 78.4678 16.8936 78.7451 16.3649C79.0311 15.8362 79.4125 15.4202 79.8891 15.1169C80.3745 14.8136 80.9161 14.6619 81.5141 14.6619C82.0255 14.6619 82.4631 14.7746 82.8271 14.9999C83.1998 15.2252 83.4728 15.4809 83.6461 15.7669H83.7241L83.6461 14.8439V12.1919H85.0371V21.4999H83.7241V20.6159H83.6461C83.4728 20.9019 83.1998 21.1576 82.8271 21.3829C82.4631 21.5996 82.0255 21.7079 81.5141 21.7079ZM81.7221 20.4209C82.0688 20.4209 82.3938 20.3299 82.6971 20.1479C83.0091 19.9659 83.2561 19.7102 83.4381 19.3809C83.6288 19.0429 83.7241 18.6442 83.7241 18.1849C83.7241 17.7256 83.6288 17.3312 83.4381 17.0019C83.2561 16.6639 83.0091 16.4039 82.6971 16.2219C82.3938 16.0399 82.0688 15.9489 81.7221 15.9489C81.3755 15.9489 81.0505 16.0399 80.7471 16.2219C80.4438 16.4039 80.1968 16.6639 80.0061 17.0019C79.8155 17.3312 79.7201 17.7256 79.7201 18.1849C79.7201 18.6442 79.8155 19.0429 80.0061 19.3809C80.1968 19.7102 80.4438 19.9659 80.7471 20.1479C81.0505 20.3299 81.3755 20.4209 81.7221 20.4209ZM89.4614 21.7079C88.8634 21.7079 88.3217 21.5606 87.8364 21.2659C87.3597 20.9626 86.9784 20.5466 86.6924 20.0179C86.4151 19.4806 86.2764 18.8696 86.2764 18.1849C86.2764 17.5002 86.4151 16.8936 86.6924 16.3649C86.9784 15.8362 87.3597 15.4202 87.8364 15.1169C88.3217 14.8136 88.8634 14.6619 89.4614 14.6619C89.9727 14.6619 90.4104 14.7746 90.7744 14.9999C91.1471 15.2252 91.4201 15.4809 91.5934 15.7669H91.6714L91.5934 14.8439V12.1919H92.9844V21.4999H91.6714V20.6159H91.5934C91.4201 20.9019 91.1471 21.1576 90.7744 21.3829C90.4104 21.5996 89.9727 21.7079 89.4614 21.7079ZM89.6694 20.4209C90.0161 20.4209 90.3411 20.3299 90.6444 20.1479C90.9564 19.9659 91.2034 19.7102 91.3854 19.3809C91.5761 19.0429 91.6714 18.6442 91.6714 18.1849C91.6714 17.7256 91.5761 17.3312 91.3854 17.0019C91.2034 16.6639 90.9564 16.4039 90.6444 16.2219C90.3411 16.0399 90.0161 15.9489 89.6694 15.9489C89.3227 15.9489 88.9977 16.0399 88.6944 16.2219C88.3911 16.4039 88.1441 16.6639 87.9534 17.0019C87.7627 17.3312 87.6674 17.7256 87.6674 18.1849C87.6674 18.6442 87.7627 19.0429 87.9534 19.3809C88.1441 19.7102 88.3911 19.9659 88.6944 20.1479C88.9977 20.3299 89.3227 20.4209 89.6694 20.4209ZM98.3743 19.5759V16.0919H97.2173V14.8699H98.3743V12.9979H99.7783V14.8699H101.404V16.0919H99.7783V19.2769C99.7783 19.6062 99.8433 19.8576 99.9733 20.0309C100.112 20.2042 100.342 20.2909 100.663 20.2909C100.827 20.2909 100.966 20.2692 101.079 20.2259C101.2 20.1826 101.321 20.1219 101.443 20.0439V21.4089C101.295 21.4696 101.139 21.5172 100.975 21.5519C100.81 21.5866 100.615 21.6039 100.39 21.6039C99.774 21.6039 99.2843 21.4262 98.9203 21.0709C98.5563 20.7069 98.3743 20.2086 98.3743 19.5759ZM105.617 21.7079C104.932 21.7079 104.33 21.5519 103.81 21.2399C103.29 20.9279 102.882 20.5076 102.588 19.9789C102.293 19.4502 102.146 18.8522 102.146 18.1849C102.146 17.5262 102.293 16.9326 102.588 16.4039C102.882 15.8666 103.29 15.4419 103.81 15.1299C104.33 14.8179 104.932 14.6619 105.617 14.6619C106.293 14.6619 106.891 14.8179 107.411 15.1299C107.931 15.4419 108.338 15.8666 108.633 16.4039C108.927 16.9326 109.075 17.5262 109.075 18.1849C109.075 18.8522 108.927 19.4502 108.633 19.9789C108.338 20.5076 107.931 20.9279 107.411 21.2399C106.891 21.5519 106.293 21.7079 105.617 21.7079ZM105.617 20.4209C105.981 20.4209 106.319 20.3342 106.631 20.1609C106.943 19.9789 107.194 19.7232 107.385 19.3939C107.584 19.0559 107.684 18.6529 107.684 18.1849C107.684 17.7169 107.584 17.3182 107.385 16.9889C107.194 16.6509 106.943 16.3952 106.631 16.2219C106.319 16.0399 105.981 15.9489 105.617 15.9489C105.253 15.9489 104.91 16.0399 104.59 16.2219C104.278 16.3952 104.022 16.6509 103.823 16.9889C103.632 17.3182 103.537 17.7169 103.537 18.1849C103.537 18.6529 103.632 19.0559 103.823 19.3939C104.022 19.7232 104.278 19.9789 104.59 20.1609C104.91 20.3342 105.253 20.4209 105.617 20.4209Z" fill="white"/>
<path d="M76.1401 41.7722C75.2674 41.7722 74.4458 41.6135 73.6751 41.2962C72.9158 40.9789 72.2414 40.5369 71.6521 39.9702C71.0628 39.3922 70.5981 38.7179 70.2581 37.9472C69.9294 37.1652 69.7651 36.3209 69.7651 35.4142C69.7651 34.5075 69.9294 33.6689 70.2581 32.8982C70.5981 32.1162 71.0571 31.4419 71.6351 30.8752C72.2244 30.2972 72.9044 29.8495 73.6751 29.5322C74.4458 29.2149 75.2674 29.0562 76.1401 29.0562C77.0694 29.0562 77.9251 29.2205 78.7071 29.5492C79.5004 29.8779 80.1634 30.3369 80.6961 30.9262L79.4041 32.2012C79.0074 31.7592 78.5314 31.4192 77.9761 31.1812C77.4321 30.9432 76.8201 30.8242 76.1401 30.8242C75.3354 30.8242 74.5931 31.0169 73.9131 31.4022C73.2331 31.7762 72.6834 32.3089 72.2641 33.0002C71.8561 33.6802 71.6521 34.4849 71.6521 35.4142C71.6521 36.3435 71.8618 37.1539 72.2811 37.8452C72.7004 38.5252 73.2501 39.0579 73.9301 39.4432C74.6101 39.8172 75.3524 40.0042 76.1571 40.0042C76.8938 40.0042 77.5624 39.8682 78.1631 39.5962C78.7638 39.3129 79.2454 38.9162 79.6081 38.4062C79.9821 37.8962 80.2088 37.2842 80.2881 36.5702H76.1231V34.9212H82.0391C82.1071 35.2272 82.1411 35.5502 82.1411 35.8902V35.9072C82.1411 37.0859 81.8804 38.1172 81.3591 39.0012C80.8491 39.8739 80.1408 40.5539 79.2341 41.0412C78.3274 41.5285 77.2961 41.7722 76.1401 41.7722ZM87.615 41.7722C86.7196 41.7722 85.932 41.5682 85.252 41.1602C84.572 40.7522 84.0393 40.2025 83.654 39.5112C83.2686 38.8199 83.076 38.0379 83.076 37.1652C83.076 36.3039 83.2686 35.5275 83.654 34.8362C84.0393 34.1335 84.572 33.5782 85.252 33.1702C85.932 32.7622 86.7196 32.5582 87.615 32.5582C88.499 32.5582 89.281 32.7622 89.961 33.1702C90.641 33.5782 91.1736 34.1335 91.559 34.8362C91.9443 35.5275 92.137 36.3039 92.137 37.1652C92.137 38.0379 91.9443 38.8199 91.559 39.5112C91.1736 40.2025 90.641 40.7522 89.961 41.1602C89.281 41.5682 88.499 41.7722 87.615 41.7722ZM87.615 40.0892C88.091 40.0892 88.533 39.9759 88.941 39.7492C89.349 39.5112 89.6776 39.1769 89.927 38.7462C90.1876 38.3042 90.318 37.7772 90.318 37.1652C90.318 36.5532 90.1876 36.0319 89.927 35.6012C89.6776 35.1592 89.349 34.8249 88.941 34.5982C88.533 34.3602 88.091 34.2412 87.615 34.2412C87.139 34.2412 86.6913 34.3602 86.272 34.5982C85.864 34.8249 85.5296 35.1592 85.269 35.6012C85.0196 36.0319 84.895 36.5532 84.895 37.1652C84.895 37.7772 85.0196 38.3042 85.269 38.7462C85.5296 39.1769 85.864 39.5112 86.272 39.7492C86.6913 39.9759 87.139 40.0892 87.615 40.0892ZM97.9079 41.7722C97.0126 41.7722 96.2249 41.5682 95.5449 41.1602C94.8649 40.7522 94.3323 40.2025 93.9469 39.5112C93.5616 38.8199 93.3689 38.0379 93.3689 37.1652C93.3689 36.3039 93.5616 35.5275 93.9469 34.8362C94.3323 34.1335 94.8649 33.5782 95.5449 33.1702C96.2249 32.7622 97.0126 32.5582 97.9079 32.5582C98.7919 32.5582 99.5739 32.7622 100.254 33.1702C100.934 33.5782 101.467 34.1335 101.852 34.8362C102.237 35.5275 102.43 36.3039 102.43 37.1652C102.43 38.0379 102.237 38.8199 101.852 39.5112C101.467 40.2025 100.934 40.7522 100.254 41.1602C99.5739 41.5682 98.7919 41.7722 97.9079 41.7722ZM97.9079 40.0892C98.3839 40.0892 98.8259 39.9759 99.2339 39.7492C99.6419 39.5112 99.9706 39.1769 100.22 38.7462C100.481 38.3042 100.611 37.7772 100.611 37.1652C100.611 36.5532 100.481 36.0319 100.22 35.6012C99.9706 35.1592 99.6419 34.8249 99.2339 34.5982C98.8259 34.3602 98.3839 34.2412 97.9079 34.2412C97.4319 34.2412 96.9843 34.3602 96.5649 34.5982C96.1569 34.8249 95.8226 35.1592 95.5619 35.6012C95.3126 36.0319 95.1879 36.5532 95.1879 37.1652C95.1879 37.7772 95.3126 38.3042 95.5619 38.7462C95.8226 39.1769 96.1569 39.5112 96.5649 39.7492C96.9843 39.9759 97.4319 40.0892 97.9079 40.0892ZM108.031 45.4442C107.271 45.4442 106.614 45.3195 106.059 45.0702C105.515 44.8322 105.073 44.5205 104.733 44.1352C104.393 43.7612 104.149 43.3759 104.002 42.9792L105.702 42.2652C105.883 42.7185 106.172 43.0869 106.569 43.3702C106.977 43.6649 107.464 43.8122 108.031 43.8122C108.824 43.8122 109.447 43.5742 109.901 43.0982C110.365 42.6222 110.598 41.9479 110.598 41.0752V40.2422H110.496C110.224 40.6502 109.844 40.9789 109.357 41.2282C108.881 41.4662 108.337 41.5852 107.725 41.5852C106.988 41.5852 106.314 41.3982 105.702 41.0242C105.09 40.6502 104.597 40.1289 104.223 39.4602C103.849 38.7802 103.662 37.9869 103.662 37.0802C103.662 36.1622 103.849 35.3689 104.223 34.7002C104.597 34.0202 105.09 33.4932 105.702 33.1192C106.314 32.7452 106.988 32.5582 107.725 32.5582C108.337 32.5582 108.881 32.6829 109.357 32.9322C109.844 33.1815 110.224 33.5102 110.496 33.9182H110.598V32.8302H112.349V41.0412C112.349 41.9819 112.162 42.7809 111.788 43.4382C111.425 44.0955 110.921 44.5942 110.275 44.9342C109.629 45.2742 108.881 45.4442 108.031 45.4442ZM108.048 39.9192C108.501 39.9192 108.92 39.8115 109.306 39.5962C109.691 39.3695 110.003 39.0465 110.241 38.6272C110.479 38.1965 110.598 37.6809 110.598 37.0802C110.598 36.4569 110.479 35.9355 110.241 35.5162C110.003 35.0855 109.691 34.7625 109.306 34.5472C108.92 34.3319 108.501 34.2242 108.048 34.2242C107.594 34.2242 107.169 34.3375 106.773 34.5642C106.387 34.7795 106.076 35.0969 105.838 35.5162C105.6 35.9355 105.481 36.4569 105.481 37.0802C105.481 37.6922 105.6 38.2135 105.838 38.6442C106.076 39.0635 106.387 39.3809 106.773 39.5962C107.169 39.8115 107.594 39.9192 108.048 39.9192ZM114.514 41.5002V29.3282H116.35V41.5002H114.514ZM122.392 41.7722C121.542 41.7722 120.783 41.5739 120.114 41.1772C119.446 40.7805 118.919 40.2365 118.533 39.5452C118.159 38.8539 117.972 38.0662 117.972 37.1822C117.972 36.3549 118.154 35.5899 118.516 34.8872C118.879 34.1845 119.383 33.6235 120.029 33.2042C120.687 32.7735 121.44 32.5582 122.29 32.5582C123.186 32.5582 123.945 32.7509 124.568 33.1362C125.203 33.5215 125.685 34.0485 126.013 34.7172C126.342 35.3859 126.506 36.1395 126.506 36.9782C126.506 37.1029 126.501 37.2162 126.489 37.3182C126.489 37.4202 126.484 37.4995 126.472 37.5562H119.774C119.865 38.4175 120.165 39.0635 120.675 39.4942C121.197 39.9249 121.786 40.1402 122.443 40.1402C123.033 40.1402 123.52 40.0099 123.905 39.7492C124.291 39.4772 124.597 39.1429 124.823 38.7462L126.336 39.4772C125.962 40.1572 125.452 40.7125 124.806 41.1432C124.16 41.5625 123.356 41.7722 122.392 41.7722ZM122.307 34.1222C121.695 34.1222 121.174 34.3092 120.743 34.6832C120.313 35.0572 120.024 35.5559 119.876 36.1792H124.687C124.665 35.8845 124.568 35.5785 124.398 35.2612C124.228 34.9439 123.968 34.6775 123.616 34.4622C123.276 34.2355 122.84 34.1222 122.307 34.1222ZM133.979 41.5002L130.715 29.3282H132.789L134.727 37.2332L134.931 38.2872H135.033L135.288 37.2332L137.736 29.3282H139.606L141.952 37.2332L142.207 38.2702H142.309L142.513 37.2332L144.451 29.3282H146.508L143.295 41.5002H141.323L138.994 33.4252L138.722 32.2862H138.62L138.331 33.4252L135.9 41.5002H133.979ZM149.922 41.7722C149.299 41.7722 148.743 41.6532 148.256 41.4152C147.769 41.1659 147.389 40.8202 147.117 40.3782C146.845 39.9362 146.709 39.4319 146.709 38.8652C146.709 38.2532 146.868 37.7319 147.185 37.3012C147.514 36.8592 147.95 36.5249 148.494 36.2982C149.038 36.0715 149.639 35.9582 150.296 35.9582C150.84 35.9582 151.316 36.0092 151.724 36.1112C152.143 36.2132 152.461 36.3209 152.676 36.4342V35.9752C152.676 35.4085 152.472 34.9552 152.064 34.6152C151.656 34.2752 151.129 34.1052 150.483 34.1052C150.041 34.1052 149.622 34.2072 149.225 34.4112C148.828 34.6039 148.511 34.8702 148.273 35.2102L147.015 34.2412C147.389 33.7199 147.882 33.3119 148.494 33.0172C149.117 32.7112 149.797 32.5582 150.534 32.5582C151.792 32.5582 152.761 32.8699 153.441 33.4932C154.121 34.1052 154.461 34.9665 154.461 36.0772V41.5002H152.676V40.4292H152.574C152.347 40.7805 152.007 41.0922 151.554 41.3642C151.101 41.6362 150.557 41.7722 149.922 41.7722ZM150.245 40.2762C150.721 40.2762 151.14 40.1629 151.503 39.9362C151.866 39.7095 152.149 39.4149 152.353 39.0522C152.568 38.6782 152.676 38.2759 152.676 37.8452C152.415 37.6979 152.109 37.5789 151.758 37.4882C151.407 37.3862 151.033 37.3352 150.636 37.3352C149.888 37.3352 149.355 37.4882 149.038 37.7942C148.721 38.0889 148.562 38.4515 148.562 38.8822C148.562 39.2902 148.715 39.6245 149.021 39.8852C149.327 40.1459 149.735 40.2762 150.245 40.2762ZM156.499 41.5002V29.3282H158.335V41.5002H156.499ZM160.517 41.5002V29.3282H162.353V41.5002H160.517ZM168.395 41.7722C167.545 41.7722 166.786 41.5739 166.117 41.1772C165.449 40.7805 164.922 40.2365 164.536 39.5452C164.162 38.8539 163.975 38.0662 163.975 37.1822C163.975 36.3549 164.157 35.5899 164.519 34.8872C164.882 34.1845 165.386 33.6235 166.032 33.2042C166.69 32.7735 167.443 32.5582 168.293 32.5582C169.189 32.5582 169.948 32.7509 170.571 33.1362C171.206 33.5215 171.688 34.0485 172.016 34.7172C172.345 35.3859 172.509 36.1395 172.509 36.9782C172.509 37.1029 172.504 37.2162 172.492 37.3182C172.492 37.4202 172.487 37.4995 172.475 37.5562H165.777C165.868 38.4175 166.168 39.0635 166.678 39.4942C167.2 39.9249 167.789 40.1402 168.446 40.1402C169.036 40.1402 169.523 40.0099 169.908 39.7492C170.294 39.4772 170.6 39.1429 170.826 38.7462L172.339 39.4772C171.965 40.1572 171.455 40.7125 170.809 41.1432C170.163 41.5625 169.359 41.7722 168.395 41.7722ZM168.31 34.1222C167.698 34.1222 167.177 34.3092 166.746 34.6832C166.316 35.0572 166.027 35.5559 165.879 36.1792H170.69C170.668 35.8845 170.571 35.5785 170.401 35.2612C170.231 34.9439 169.971 34.6775 169.619 34.4622C169.279 34.2355 168.843 34.1222 168.31 34.1222ZM174.882 38.9842V34.4282H173.369V32.8302H174.882V30.3822H176.718V32.8302H178.843V34.4282H176.718V38.5932C176.718 39.0239 176.803 39.3525 176.973 39.5792C177.154 39.8059 177.454 39.9192 177.874 39.9192C178.089 39.9192 178.27 39.8909 178.418 39.8342C178.576 39.7775 178.735 39.6982 178.894 39.5962V41.3812C178.701 41.4605 178.497 41.5229 178.282 41.5682C178.066 41.6135 177.811 41.6362 177.517 41.6362C176.712 41.6362 176.072 41.4039 175.596 40.9392C175.12 40.4632 174.882 39.8115 174.882 38.9842Z" fill="white"/>
<path d="M171.5 0.5H27.5C12.5883 0.5 0.5 12.5883 0.5 27.5C0.5 42.4117 12.5883 54.5 27.5 54.5H171.5C186.412 54.5 198.5 42.4117 198.5 27.5C198.5 12.5883 186.412 0.5 171.5 0.5Z" stroke="#747775"/>
</g>
<defs>
<linearGradient id="paint0_linear_47_668" x1="37.2843" y1="34.045" x2="18.7823" y2="55.7229" gradientUnits="userSpaceOnUse">
<stop stop-color="#4285F4"/>
<stop offset="1" stop-color="#1B74E8"/>
</linearGradient>
<clipPath id="clip0_47_668">
<rect width="199" height="55" fill="white"/>
</clipPath>
</defs>
</svg>
