<svg width="10" height="17" viewBox="0 0 10 17" fill="none" xmlns="http://www.w3.org/2000/svg">
<path d="M3.86598 15.8301L0.295188 12.2593C0.0983782 12.0625 -1.04904e-05 11.8046 -1.04904e-05 11.5466C-1.04904e-05 11.2887 0.0983782 11.0308 0.295188 10.834C0.688776 10.4404 1.32689 10.4404 1.72048 10.834L3.57078 12.6843L3.57078 1.00783C3.57078 0.451223 4.02201 0 4.57861 0C5.13522 0 5.58644 0.451223 5.58644 1.00783L5.58644 12.6843L7.43675 10.834C7.83034 10.4404 8.46845 10.4404 8.86204 10.834C9.25562 11.2276 9.25562 11.8657 8.86204 12.2593L5.29124 15.8301C4.89768 16.2236 4.25954 16.2236 3.86598 15.8301Z" fill="#D80027"/>
</svg>
