<svg width="9" height="6" viewBox="0 0 9 6" fill="none" xmlns="http://www.w3.org/2000/svg">
<g clip-path="url(#clip0_546_511)">
<path d="M5.49236 2.30769L7.31004 0.322004C7.69323 -0.107335 8.32205 -0.107335 8.70524 0.322004C9.09825 0.740608 9.09825 1.42755 8.70524 1.84615L5.1976 5.678C4.81441 6.0966 4.18559 6.0966 3.79258 5.678L0.284934 1.84615C0.0884275 1.63148 -0.00982571 1.36315 -0.00982571 1.08408C-0.00982571 0.805009 0.0884275 0.525939 0.284934 0.322004C0.668122 -0.096601 1.29694 -0.096601 1.68996 0.322004L3.50764 2.30769L4.5 3.3703L5.49236 2.30769Z" fill="white"/>
</g>
<defs>
<clipPath id="clip0_546_511">
<rect width="6" height="9" fill="white" transform="matrix(0 1 -1 0 9 0)"/>
</clipPath>
</defs>
</svg>
