<svg width="26" height="22" viewBox="0 0 26 22" fill="none" xmlns="http://www.w3.org/2000/svg">
<path d="M3.51952 21.1171H22.2903C23.2237 21.1171 24.1189 20.7463 24.779 20.0863C25.439 19.4262 25.8098 18.531 25.8098 17.5976V3.51952C25.8098 2.58608 25.439 1.69088 24.779 1.03084C24.1189 0.370806 23.2237 0 22.2903 0H3.51952C2.58608 0 1.69088 0.370806 1.03084 1.03084C0.370805 1.69088 0 2.58608 0 3.51952V17.5976C0 18.531 0.370805 19.4262 1.03084 20.0863C1.69088 20.7463 2.58608 21.1171 3.51952 21.1171ZM2.34635 3.51952C2.34635 3.20837 2.46995 2.90997 2.68996 2.68996C2.90997 2.46995 3.20837 2.34635 3.51952 2.34635H22.2903C22.6014 2.34635 22.8998 2.46995 23.1198 2.68996C23.3399 2.90997 23.4635 3.20837 23.4635 3.51952V17.5976C23.4635 17.9087 23.3399 18.2071 23.1198 18.4272C22.8998 18.6472 22.6014 18.7708 22.2903 18.7708H3.51952C3.20837 18.7708 2.90997 18.6472 2.68996 18.4272C2.46995 18.2071 2.34635 17.9087 2.34635 17.5976V3.51952Z" fill="white"/>
<path d="M5.86653 16.4245H9.38605C9.69719 16.4245 9.99559 16.3009 10.2156 16.0809C10.4356 15.8609 10.5592 15.5624 10.5592 15.2513C10.5592 14.9402 10.4356 14.6418 10.2156 14.4217C9.99559 14.2017 9.69719 14.0781 9.38605 14.0781H5.86653C5.55539 14.0781 5.25699 14.2017 5.03697 14.4217C4.81696 14.6418 4.69336 14.9402 4.69336 15.2513C4.69336 15.5624 4.81696 15.8609 5.03697 16.0809C5.25699 16.3009 5.55539 16.4245 5.86653 16.4245Z" fill="white"/>
<path d="M5.86653 12.9049H12.9056C13.2167 12.9049 13.5151 12.7813 13.7351 12.5613C13.9551 12.3413 14.0787 12.0429 14.0787 11.7318C14.0787 11.4206 13.9551 11.1222 13.7351 10.9022C13.5151 10.6822 13.2167 10.5586 12.9056 10.5586H5.86653C5.55539 10.5586 5.25699 10.6822 5.03697 10.9022C4.81696 11.1222 4.69336 11.4206 4.69336 11.7318C4.69336 12.0429 4.81696 12.3413 5.03697 12.5613C5.25699 12.7813 5.55539 12.9049 5.86653 12.9049Z" fill="white"/>
</svg>
