<svg width="46" height="45" viewBox="0 0 46 45" fill="none" xmlns="http://www.w3.org/2000/svg">
<circle cx="23" cy="22.5" r="22.5" fill="#D80027"/>
<path d="M14.2214 33.4931L14.9285 34.2002L15.6356 33.4931L22.6785 26.4502L29.7214 33.4931L30.4285 34.2002L31.1356 33.4931L33.3499 31.2788L34.057 30.5717L33.3499 29.8646L26.307 22.8217L33.3499 15.7788L34.057 15.0717L33.3499 14.3646L31.1356 12.1503L30.4285 11.4432L29.7214 12.1503L22.6785 19.1932L15.6356 12.1503L14.9285 11.4432L14.2214 12.1503L12.0071 14.3646L11.3 15.0717L12.0071 15.7788L19.05 22.8217L12.0071 29.8646L11.3 30.5717L12.0071 31.2788L14.2214 33.4931Z" fill="white" stroke="white" stroke-width="2"/>
</svg>
