<svg width="63" height="63" viewBox="0 0 63 63" fill="none" xmlns="http://www.w3.org/2000/svg">
<rect x="0.337891" width="62.3238" height="62.3238" rx="31.1619" fill="#EBDCFF"/>
<path d="M44.1264 41.7777L42.4149 39.9215V30.7434H33.7607L29.5951 26.309H42.4149V22.6309H26.1722L23.9441 20.2934H42.4149C43.0177 20.2934 43.5344 20.5225 43.9649 20.9809C44.3955 21.4392 44.6107 21.9892 44.6107 22.6309V40.3684C44.6107 40.6434 44.5677 40.8954 44.4816 41.1246C44.3955 41.3538 44.2771 41.5715 44.1264 41.7777ZM27.9805 30.7434H20.5857V40.3684H37.0222L27.9805 30.7434ZM42.3503 46.0402L39.2503 42.7059H20.5857C20.0045 42.7059 19.4932 42.471 19.0519 42.0012C18.6106 41.5314 18.3899 40.9871 18.3899 40.3684V22.6309C18.3899 22.035 18.589 21.5079 18.9873 21.0496C19.3856 20.5913 19.8646 20.3392 20.4243 20.2934H21.0701L23.266 22.6309H20.5857V26.309H23.8149L16.8076 18.8496L18.2607 17.3027L43.8034 44.4934L42.3503 46.0402Z" fill="#8000E5"/>
</svg>
