<svg width="22" height="19" viewBox="0 0 22 19" fill="none" xmlns="http://www.w3.org/2000/svg">
<path d="M21.3467 14.7751L17.7759 18.3459C17.5791 18.5427 17.3212 18.6411 17.0632 18.6411C16.8053 18.6411 16.5474 18.5427 16.3506 18.3459C15.957 17.9523 15.957 17.3142 16.3506 16.9206L18.2009 15.0703H6.52443C5.96782 15.0703 5.5166 14.6191 5.5166 14.0625C5.5166 13.5059 5.96782 13.0547 6.52443 13.0547H18.2009L16.3506 11.2044C15.957 10.8108 15.957 10.1727 16.3506 9.77908C16.7442 9.38549 17.3823 9.38549 17.7759 9.77908L21.3467 13.3499C21.7402 13.7434 21.7402 14.3816 21.3467 14.7751Z" fill="#8000E5"/>
<path d="M0.295176 3.86598L3.86597 0.295188C4.06278 0.0983782 4.32069 -1.04904e-05 4.57863 -1.04904e-05C4.83657 -1.04904e-05 5.09448 0.0983782 5.29129 0.295188C5.68485 0.688776 5.68485 1.32689 5.29129 1.72048L3.44095 3.57078L15.1174 3.57078C15.674 3.57078 16.1252 4.02201 16.1252 4.57861C16.1252 5.13522 15.674 5.58644 15.1174 5.58644L3.44095 5.58644L5.29129 7.43675C5.68485 7.83034 5.68485 8.46845 5.29129 8.86204C4.89767 9.25562 4.25959 9.25562 3.86597 8.86204L0.295176 5.29124C-0.098381 4.89768 -0.098381 4.25954 0.295176 3.86598Z" fill="#8000E5"/>
</svg>
