<svg width="15" height="17" viewBox="0 0 15 17" fill="none" xmlns="http://www.w3.org/2000/svg">
<path d="M1.1875 16.4166C0.870833 16.4166 0.59375 16.2978 0.35625 16.0603C0.11875 15.8228 0 15.5458 0 15.2291V2.95825C0 2.64159 0.11875 2.3645 0.35625 2.127C0.59375 1.8895 0.870833 1.77075 1.1875 1.77075H2.47396V0.583252H3.76042V1.77075H10.4896V0.583252H11.776V1.77075H13.0625C13.3792 1.77075 13.6562 1.8895 13.8938 2.127C14.1312 2.3645 14.25 2.64159 14.25 2.95825V15.2291C14.25 15.5458 14.1312 15.8228 13.8938 16.0603C13.6562 16.2978 13.3792 16.4166 13.0625 16.4166H1.1875ZM1.1875 15.2291H13.0625V6.71867H1.1875V15.2291ZM1.1875 5.53117H13.0625V2.95825H1.1875V5.53117ZM1.1875 5.53117V2.95825V5.53117ZM7.125 10.0833C6.90069 10.0833 6.71267 10.0074 6.56094 9.85565C6.4092 9.70391 6.33333 9.51589 6.33333 9.29159C6.33333 9.06728 6.4092 8.87926 6.56094 8.72752C6.71267 8.57579 6.90069 8.49992 7.125 8.49992C7.34931 8.49992 7.53733 8.57579 7.68906 8.72752C7.8408 8.87926 7.91667 9.06728 7.91667 9.29159C7.91667 9.51589 7.8408 9.70391 7.68906 9.85565C7.53733 10.0074 7.34931 10.0833 7.125 10.0833ZM3.95833 10.0833C3.73403 10.0833 3.54601 10.0074 3.39427 9.85565C3.24253 9.70391 3.16667 9.51589 3.16667 9.29159C3.16667 9.06728 3.24253 8.87926 3.39427 8.72752C3.54601 8.57579 3.73403 8.49992 3.95833 8.49992C4.18264 8.49992 4.37066 8.57579 4.5224 8.72752C4.67413 8.87926 4.75 9.06728 4.75 9.29159C4.75 9.51589 4.67413 9.70391 4.5224 9.85565C4.37066 10.0074 4.18264 10.0833 3.95833 10.0833ZM10.2917 10.0833C10.0674 10.0833 9.87934 10.0074 9.7276 9.85565C9.57587 9.70391 9.5 9.51589 9.5 9.29159C9.5 9.06728 9.57587 8.87926 9.7276 8.72752C9.87934 8.57579 10.0674 8.49992 10.2917 8.49992C10.516 8.49992 10.704 8.57579 10.8557 8.72752C11.0075 8.87926 11.0833 9.06728 11.0833 9.29159C11.0833 9.51589 11.0075 9.70391 10.8557 9.85565C10.704 10.0074 10.516 10.0833 10.2917 10.0833ZM7.125 13.2499C6.90069 13.2499 6.71267 13.1741 6.56094 13.0223C6.4092 12.8706 6.33333 12.6826 6.33333 12.4583C6.33333 12.2339 6.4092 12.0459 6.56094 11.8942C6.71267 11.7425 6.90069 11.6666 7.125 11.6666C7.34931 11.6666 7.53733 11.7425 7.68906 11.8942C7.8408 12.0459 7.91667 12.2339 7.91667 12.4583C7.91667 12.6826 7.8408 12.8706 7.68906 13.0223C7.53733 13.1741 7.34931 13.2499 7.125 13.2499ZM3.95833 13.2499C3.73403 13.2499 3.54601 13.1741 3.39427 13.0223C3.24253 12.8706 3.16667 12.6826 3.16667 12.4583C3.16667 12.2339 3.24253 12.0459 3.39427 11.8942C3.54601 11.7425 3.73403 11.6666 3.95833 11.6666C4.18264 11.6666 4.37066 11.7425 4.5224 11.8942C4.67413 12.0459 4.75 12.2339 4.75 12.4583C4.75 12.6826 4.67413 12.8706 4.5224 13.0223C4.37066 13.1741 4.18264 13.2499 3.95833 13.2499ZM10.2917 13.2499C10.0674 13.2499 9.87934 13.1741 9.7276 13.0223C9.57587 12.8706 9.5 12.6826 9.5 12.4583C9.5 12.2339 9.57587 12.0459 9.7276 11.8942C9.87934 11.7425 10.0674 11.6666 10.2917 11.6666C10.516 11.6666 10.704 11.7425 10.8557 11.8942C11.0075 12.0459 11.0833 12.2339 11.0833 12.4583C11.0833 12.6826 11.0075 12.8706 10.8557 13.0223C10.704 13.1741 10.516 13.2499 10.2917 13.2499Z" fill="#898989"/>
</svg>
