<svg width="56" height="56" viewBox="0 0 56 56" fill="none" xmlns="http://www.w3.org/2000/svg">
<rect width="56" height="56" rx="28" fill="#E7EAEC"/>
<g clip-path="url(#clip0_546_7313)">
<path d="M37.4236 20.0871C37.4236 15.1835 33.4878 11.1992 28.6437 11.1992C23.7996 11.1992 19.8638 15.1835 19.8638 20.0871C19.8638 24.9908 23.7996 28.9751 28.6437 28.9751C33.4878 28.9751 37.4236 24.9908 37.4236 20.0871Z" fill="#C4C4C4"/>
<path d="M14.9767 42.285C14.8037 42.7666 15.0632 43.3358 15.5822 43.5109C15.6687 43.5109 15.7985 43.5547 15.885 43.5547H41.23C41.8355 43.5547 42.3112 43.0731 42.3112 42.4601C42.3112 42.3288 42.3112 42.1974 42.268 42.1098C39.7162 34.4916 31.585 30.4198 24.0594 33.003C19.7343 34.4916 16.404 37.9067 14.9767 42.285Z" fill="#C4C4C4"/>
</g>
<defs>
<clipPath id="clip0_546_7313">
<rect width="27.3778" height="32.3556" fill="white" transform="translate(14.9331 11.1992)"/>
</clipPath>
</defs>
</svg>
