<svg width="32" height="32" viewBox="0 0 32 32" fill="none" xmlns="http://www.w3.org/2000/svg">
<path d="M16.067 25.3332L19.867 21.5665L16.067 17.7998L14.667 19.1998L16.1003 20.6332C15.4781 20.6554 14.8725 20.5554 14.2837 20.3332C13.6948 20.1109 13.167 19.7665 12.7003 19.2998C12.2559 18.8554 11.917 18.3443 11.6837 17.7665C11.4503 17.1887 11.3337 16.6109 11.3337 16.0332C11.3337 15.6554 11.3837 15.2776 11.4837 14.8998C11.5837 14.5221 11.7225 14.1554 11.9003 13.7998L10.4337 12.3332C10.0559 12.8887 9.7781 13.4776 9.60032 14.0998C9.42255 14.7221 9.33366 15.3554 9.33366 15.9998C9.33366 16.8443 9.50033 17.6776 9.83366 18.4998C10.167 19.3221 10.6559 20.0554 11.3003 20.6998C11.9448 21.3443 12.667 21.8276 13.467 22.1498C14.267 22.4721 15.0892 22.6443 15.9337 22.6665L14.667 23.9332L16.067 25.3332ZM21.567 19.6665C21.9448 19.1109 22.2225 18.5221 22.4003 17.8998C22.5781 17.2776 22.667 16.6443 22.667 15.9998C22.667 15.1554 22.5059 14.3165 22.1837 13.4832C21.8614 12.6498 21.3781 11.9109 20.7337 11.2665C20.0892 10.6221 19.3614 10.1443 18.5503 9.83317C17.7392 9.52206 16.9114 9.3665 16.067 9.3665L17.3337 8.0665L15.9337 6.6665L12.1337 10.4332L15.9337 14.1998L17.3337 12.7998L15.867 11.3332C16.467 11.3332 17.0781 11.4498 17.7003 11.6832C18.3225 11.9165 18.8559 12.2554 19.3003 12.6998C19.7448 13.1443 20.0837 13.6554 20.317 14.2332C20.5503 14.8109 20.667 15.3887 20.667 15.9665C20.667 16.3443 20.617 16.7221 20.517 17.0998C20.417 17.4776 20.2781 17.8443 20.1003 18.1998L21.567 19.6665ZM16.0003 29.3332C14.1781 29.3332 12.4559 28.9832 10.8337 28.2832C9.21144 27.5832 7.79477 26.6276 6.58366 25.4165C5.37255 24.2054 4.41699 22.7887 3.71699 21.1665C3.01699 19.5443 2.66699 17.8221 2.66699 15.9998C2.66699 14.1554 3.01699 12.4221 3.71699 10.7998C4.41699 9.17762 5.37255 7.7665 6.58366 6.5665C7.79477 5.3665 9.21144 4.4165 10.8337 3.7165C12.4559 3.0165 14.1781 2.6665 16.0003 2.6665C17.8448 2.6665 19.5781 3.0165 21.2003 3.7165C22.8225 4.4165 24.2337 5.3665 25.4337 6.5665C26.6337 7.7665 27.5837 9.17762 28.2837 10.7998C28.9837 12.4221 29.3337 14.1554 29.3337 15.9998C29.3337 17.8221 28.9837 19.5443 28.2837 21.1665C27.5837 22.7887 26.6337 24.2054 25.4337 25.4165C24.2337 26.6276 22.8225 27.5832 21.2003 28.2832C19.5781 28.9832 17.8448 29.3332 16.0003 29.3332ZM16.0003 27.3332C19.1559 27.3332 21.8337 26.2276 24.0337 24.0165C26.2337 21.8054 27.3337 19.1332 27.3337 15.9998C27.3337 12.8443 26.2337 10.1665 24.0337 7.9665C21.8337 5.7665 19.1559 4.6665 16.0003 4.6665C12.867 4.6665 10.1948 5.7665 7.98366 7.9665C5.77255 10.1665 4.66699 12.8443 4.66699 15.9998C4.66699 19.1332 5.77255 21.8054 7.98366 24.0165C10.1948 26.2276 12.867 27.3332 16.0003 27.3332Z" fill="white"/>
</svg>
