<svg width="55" height="55" viewBox="0 0 55 55" fill="none" xmlns="http://www.w3.org/2000/svg">
<rect width="55" height="55" rx="12" fill="#EBDCFF"/>
<path d="M15.375 36.875V34.7188H40.625V36.875H15.375ZM16.625 28.875L15.2813 28.125L16.5312 26.0312H14.125V24.5625H16.5312L15.2813 22.4687L16.625 21.7187L17.7813 23.7812L18.9688 21.7187L20.2812 22.4687L19.0625 24.5625H21.4688V26.0312H19.0625L20.2812 28.125L18.9688 28.875L17.7813 26.8125L16.625 28.875ZM26.8125 28.875L25.5 28.0625L26.75 25.9688H24.3438V24.5H26.75L25.5 22.4062L26.8125 21.6562L28 23.7187L29.1875 21.6562L30.5 22.4062L29.2812 24.5H31.6562V25.9688H29.2812L30.5 28.0625L29.1875 28.875L28 26.8125L26.8125 28.875ZM37.0312 28.875L35.7188 28.0625L36.9375 25.9688H34.5312V24.5H36.9375L35.7188 22.4062L37.0312 21.6562L38.2188 23.7187L39.375 21.6562L40.7188 22.4062L39.4688 24.5H41.875V25.9688H39.4688L40.7188 28.0625L39.375 28.875L38.2188 26.8125L37.0312 28.875Z" fill="#8000E5"/>
</svg>
