<svg width="30" height="29" viewBox="0 0 30 29" fill="none" xmlns="http://www.w3.org/2000/svg">
<path d="M27.1954 22.2252L25.3026 19.7019C24.3391 18.4112 23.8169 16.8445 23.8133 15.2339V10.871C23.8109 8.83949 23.0772 6.87676 21.7463 5.34188C20.4155 3.80699 18.5766 2.80256 16.5659 2.51235V2.41572C16.5659 2.09537 16.4386 1.78813 16.2121 1.56161C15.9856 1.33508 15.6784 1.20782 15.358 1.20782C15.0376 1.20782 14.7304 1.33508 14.5039 1.56161C14.2774 1.78813 14.1501 2.09537 14.1501 2.41572V2.51235C12.1394 2.80256 10.3005 3.80699 8.96966 5.34188C7.63884 6.87676 6.90512 8.83949 6.90274 10.871V15.2339C6.89929 16.8448 6.37752 18.4117 5.41461 19.7031L3.52063 22.2252C3.38604 22.4046 3.30408 22.618 3.28393 22.8415C3.26379 23.0649 3.30625 23.2895 3.40657 23.4901C3.50689 23.6908 3.6611 23.8595 3.85192 23.9774C4.04274 24.0954 4.26263 24.1578 4.48695 24.1578H10.6979C10.9616 25.1937 11.5629 26.1122 12.4068 26.7682C13.2507 27.4242 14.2891 27.7804 15.358 27.7804C16.4269 27.7804 17.4653 27.4242 18.3092 26.7682C19.1531 26.1122 19.7544 25.1937 20.0181 24.1578H26.2291C26.4534 24.1578 26.6733 24.0954 26.8641 23.9774C27.0549 23.8595 27.2091 23.6908 27.3094 23.4901C27.4097 23.2895 27.4522 23.0649 27.4321 22.8415C27.4119 22.618 27.33 22.4046 27.1954 22.2252ZM15.358 25.3657C14.9358 25.3644 14.5214 25.2522 14.1563 25.0402C13.7913 24.8282 13.4883 24.5239 13.278 24.1578H17.438C17.2277 24.5239 16.9247 24.8282 16.5597 25.0402C16.1946 25.2522 15.7802 25.3644 15.358 25.3657ZM6.90274 21.742L7.34724 21.1502C8.62235 19.4408 9.31352 17.3665 9.31853 15.2339V10.871C9.31853 9.26921 9.95483 7.73305 11.0874 6.60043C12.2201 5.46781 13.7562 4.83151 15.358 4.83151C16.9598 4.83151 18.4959 5.46781 19.6286 6.60043C20.7612 7.73305 21.3975 9.26921 21.3975 10.871V15.2339C21.4018 17.3675 22.0935 19.4429 23.37 21.1526L23.8133 21.742H6.90274Z" fill="#333333"/>
</svg>
