<svg width="17" height="10" viewBox="0 0 17 10" fill="none" xmlns="http://www.w3.org/2000/svg">
<path d="M0.295176 4.36549L3.86597 0.7947C4.06278 0.59789 4.32069 0.499501 4.57863 0.499501C4.83657 0.499501 5.09448 0.59789 5.29129 0.7947C5.68485 1.18829 5.68485 1.8264 5.29129 2.21999L3.44095 4.0703L15.1174 4.0703C15.674 4.0703 16.1252 4.52152 16.1252 5.07812C16.1252 5.63473 15.674 6.08595 15.1174 6.08595L3.44095 6.08595L5.29129 7.93626C5.68485 8.32985 5.68485 8.96796 5.29129 9.36155C4.89767 9.75514 4.25959 9.75514 3.86597 9.36155L0.295176 5.79075C-0.098381 5.39719 -0.098381 4.75905 0.295176 4.36549Z" fill="#8000E5"/>
</svg>
