<svg width="10" height="17" viewBox="0 0 10 17" fill="none" xmlns="http://www.w3.org/2000/svg">
<path d="M5.29124 0.295176L8.86204 3.86597C9.05885 4.06278 9.15724 4.32069 9.15724 4.57863C9.15724 4.83657 9.05885 5.09448 8.86204 5.29129C8.46845 5.68485 7.83034 5.68485 7.43675 5.29129L5.58644 3.44095V15.1174C5.58644 15.674 5.13522 16.1252 4.57861 16.1252C4.02201 16.1252 3.57079 15.674 3.57079 15.1174V3.44095L1.72048 5.29129C1.32689 5.68485 0.688779 5.68485 0.295191 5.29129C-0.098397 4.89767 -0.098397 4.25959 0.295191 3.86597L3.86599 0.295176C4.25954 -0.098381 4.89769 -0.098381 5.29124 0.295176Z" fill="#00C058"/>
</svg>
