<svg width="27" height="27" viewBox="0 0 27 27" fill="none" xmlns="http://www.w3.org/2000/svg">
<path d="M13.5 13.0605C11.5951 13.0605 10.0422 12.4535 8.84126 11.2395C7.64034 10.0256 7.03988 8.45581 7.03988 6.53023C7.03988 4.60465 7.64034 3.03488 8.84126 1.82093C10.0422 0.606977 11.5951 0 13.5 0C15.4049 0 16.9578 0.606977 18.1587 1.82093C19.3597 3.03488 19.9601 4.60465 19.9601 6.53023C19.9601 8.45581 19.3597 10.0256 18.1587 11.2395C16.9578 12.4535 15.4049 13.0605 13.5 13.0605ZM0 27V22.814C0 21.6977 0.276074 20.7419 0.828221 19.9465C1.38037 19.1512 2.08436 18.5442 2.94018 18.1256C4.81748 17.2884 6.61196 16.6605 8.32362 16.2419C10.0353 15.8233 11.7607 15.614 13.5 15.614C15.2393 15.614 16.9578 15.8302 18.6557 16.2628C20.3535 16.6953 22.1411 17.3302 24.0184 18.1674C24.9018 18.5581 25.6196 19.1512 26.1718 19.9465C26.7239 20.7419 27 21.6977 27 22.814V27H0ZM2.81595 24.1535H24.1841V22.8558C24.1841 22.4093 24.0529 21.9837 23.7906 21.5791C23.5284 21.1744 23.204 20.8744 22.8175 20.6791C21.0782 19.8419 19.4839 19.2628 18.0345 18.9419C16.5851 18.6209 15.0736 18.4605 13.5 18.4605C11.9264 18.4605 10.4011 18.6209 8.92408 18.9419C7.44709 19.2628 5.85276 19.8419 4.1411 20.6791C3.7546 20.8744 3.43712 21.1744 3.18865 21.5791C2.94018 21.9837 2.81595 22.4093 2.81595 22.8558V24.1535ZM13.5 10.214C14.5491 10.214 15.4187 9.86512 16.1089 9.16744C16.7991 8.46977 17.1442 7.5907 17.1442 6.53023C17.1442 5.46977 16.7991 4.5907 16.1089 3.89302C15.4187 3.19535 14.5491 2.84651 13.5 2.84651C12.4509 2.84651 11.5813 3.19535 10.8911 3.89302C10.2009 4.5907 9.85583 5.46977 9.85583 6.53023C9.85583 7.5907 10.2009 8.46977 10.8911 9.16744C11.5813 9.86512 12.4509 10.214 13.5 10.214Z" fill="#999999"/>
</svg>
