<svg width="19" height="21" viewBox="0 0 19 21" fill="none" xmlns="http://www.w3.org/2000/svg">
<path d="M5.58854 15.1646L9.0625 11.6302L12.5667 15.1646L13.624 14.0771L10.15 10.5427L13.624 7.03854L12.5667 5.92083L9.0625 9.45521L5.58854 5.92083L4.50104 7.03854L8.00521 10.5427L4.50104 14.0771L5.58854 15.1646ZM2.96042 20.3906C2.49722 20.3906 2.09444 20.2194 1.75208 19.8771C1.40972 19.5347 1.23854 19.1219 1.23854 18.6385V2.20521H0V0.845833H5.16562V0H12.9594V0.845833H18.125V2.20521H16.8865V18.6385C16.8865 19.1219 16.7153 19.5347 16.3729 19.8771C16.0306 20.2194 15.6278 20.3906 15.1646 20.3906H2.96042ZM15.5271 2.20521H2.59792V18.6385C2.59792 18.7392 2.63819 18.8299 2.71875 18.9104C2.79931 18.991 2.87986 19.0312 2.96042 19.0312H15.1646C15.2451 19.0312 15.3257 18.991 15.4063 18.9104C15.4868 18.8299 15.5271 18.7392 15.5271 18.6385V2.20521ZM2.59792 2.20521V19.0312V18.6385V2.20521Z" fill="#898989"/>
</svg>
