<svg width="45" height="45" viewBox="0 0 45 45" fill="none" xmlns="http://www.w3.org/2000/svg">
<rect width="45" height="45" rx="22.5" fill="#EBDCFF"/>
<path d="M14.5833 33C14.1611 33 13.7917 32.8425 13.475 32.5275C13.1583 32.2125 13 31.845 13 31.425V15.15C13 14.73 13.1583 14.3625 13.475 14.0475C13.7917 13.7325 14.1611 13.575 14.5833 13.575H16.2986V12H18.0139V13.575H26.9861V12H28.7014V13.575H30.4167C30.8389 13.575 31.2083 13.7325 31.525 14.0475C31.8417 14.3625 32 14.73 32 15.15V31.425C32 31.845 31.8417 32.2125 31.525 32.5275C31.2083 32.8425 30.8389 33 30.4167 33H14.5833ZM14.5833 31.425H30.4167V20.1375H14.5833V31.425ZM14.5833 18.5625H30.4167V15.15H14.5833V18.5625ZM22.5 24.6C22.2009 24.6 21.9502 24.4994 21.7479 24.2981C21.5456 24.0969 21.4444 23.8475 21.4444 23.55C21.4444 23.2525 21.5456 23.0031 21.7479 22.8019C21.9502 22.6006 22.2009 22.5 22.5 22.5C22.7991 22.5 23.0498 22.6006 23.2521 22.8019C23.4544 23.0031 23.5556 23.2525 23.5556 23.55C23.5556 23.8475 23.4544 24.0969 23.2521 24.2981C23.0498 24.4994 22.7991 24.6 22.5 24.6ZM18.2778 24.6C17.9787 24.6 17.728 24.4994 17.5257 24.2981C17.3234 24.0969 17.2222 23.8475 17.2222 23.55C17.2222 23.2525 17.3234 23.0031 17.5257 22.8019C17.728 22.6006 17.9787 22.5 18.2778 22.5C18.5769 22.5 18.8275 22.6006 19.0299 22.8019C19.2322 23.0031 19.3333 23.2525 19.3333 23.55C19.3333 23.8475 19.2322 24.0969 19.0299 24.2981C18.8275 24.4994 18.5769 24.6 18.2778 24.6ZM26.7222 24.6C26.4231 24.6 26.1725 24.4994 25.9701 24.2981C25.7678 24.0969 25.6667 23.8475 25.6667 23.55C25.6667 23.2525 25.7678 23.0031 25.9701 22.8019C26.1725 22.6006 26.4231 22.5 26.7222 22.5C27.0213 22.5 27.272 22.6006 27.4743 22.8019C27.6766 23.0031 27.7778 23.2525 27.7778 23.55C27.7778 23.8475 27.6766 24.0969 27.4743 24.2981C27.272 24.4994 27.0213 24.6 26.7222 24.6ZM22.5 28.8C22.2009 28.8 21.9502 28.6994 21.7479 28.4981C21.5456 28.2969 21.4444 28.0475 21.4444 27.75C21.4444 27.4525 21.5456 27.2031 21.7479 27.0019C21.9502 26.8006 22.2009 26.7 22.5 26.7C22.7991 26.7 23.0498 26.8006 23.2521 27.0019C23.4544 27.2031 23.5556 27.4525 23.5556 27.75C23.5556 28.0475 23.4544 28.2969 23.2521 28.4981C23.0498 28.6994 22.7991 28.8 22.5 28.8ZM18.2778 28.8C17.9787 28.8 17.728 28.6994 17.5257 28.4981C17.3234 28.2969 17.2222 28.0475 17.2222 27.75C17.2222 27.4525 17.3234 27.2031 17.5257 27.0019C17.728 26.8006 17.9787 26.7 18.2778 26.7C18.5769 26.7 18.8275 26.8006 19.0299 27.0019C19.2322 27.2031 19.3333 27.4525 19.3333 27.75C19.3333 28.0475 19.2322 28.2969 19.0299 28.4981C18.8275 28.6994 18.5769 28.8 18.2778 28.8ZM26.7222 28.8C26.4231 28.8 26.1725 28.6994 25.9701 28.4981C25.7678 28.2969 25.6667 28.0475 25.6667 27.75C25.6667 27.4525 25.7678 27.2031 25.9701 27.0019C26.1725 26.8006 26.4231 26.7 26.7222 26.7C27.0213 26.7 27.272 26.8006 27.4743 27.0019C27.6766 27.2031 27.7778 27.4525 27.7778 27.75C27.7778 28.0475 27.6766 28.2969 27.4743 28.4981C27.272 28.6994 27.0213 28.8 26.7222 28.8Z" fill="#8000E5"/>
</svg>
