<svg width="29" height="29" viewBox="0 0 29 29" fill="none" xmlns="http://www.w3.org/2000/svg">
<path d="M14.5 20.5416C14.1795 20.5416 13.8721 20.4143 13.6455 20.1877C13.4189 19.9611 13.2916 19.6538 13.2916 19.3333V13.2916C13.2916 12.9711 13.4189 12.6638 13.6455 12.4372C13.8721 12.2106 14.1795 12.0833 14.5 12.0833C14.8204 12.0833 15.1278 12.2106 15.3544 12.4372C15.581 12.6638 15.7083 12.9711 15.7083 13.2916V19.3333C15.7083 19.6538 15.581 19.9611 15.3544 20.1877C15.1278 20.4143 14.8204 20.5416 14.5 20.5416Z" fill="#999999"/>
<path d="M14.5 10.8749C15.1673 10.8749 15.7083 10.334 15.7083 9.66661C15.7083 8.99927 15.1673 8.45828 14.5 8.45828C13.8326 8.45828 13.2916 8.99927 13.2916 9.66661C13.2916 10.334 13.8326 10.8749 14.5 10.8749Z" fill="#999999"/>
<path d="M14.5001 26.5834C12.1102 26.5834 9.77404 25.8747 7.78695 24.547C5.79985 23.2192 4.2511 21.3321 3.33654 19.1241C2.42198 16.9162 2.18269 14.4867 2.64893 12.1427C3.11517 9.79878 4.266 7.64573 5.95588 5.95585C7.64576 4.26596 9.79881 3.11514 12.1427 2.6489C14.4867 2.18266 16.9162 2.42195 19.1242 3.33651C21.3321 4.25107 23.2193 5.79982 24.547 7.78692C25.8747 9.77401 26.5834 12.1102 26.5834 14.5001C26.5799 17.7037 25.3057 20.7751 23.0404 23.0404C20.7751 25.3057 17.7037 26.5799 14.5001 26.5834ZM14.5001 4.83339C12.5882 4.83339 10.7192 5.40033 9.12957 6.46252C7.5399 7.5247 6.3009 9.03443 5.56925 10.8008C4.8376 12.5671 4.64617 14.5108 5.01916 16.3859C5.39215 18.2611 6.31281 19.9835 7.66472 21.3354C9.01663 22.6873 10.7391 23.608 12.6142 23.981C14.4894 24.354 16.433 24.1625 18.1994 23.4309C19.9657 22.6992 21.4754 21.4602 22.5376 19.8706C23.5998 18.2809 24.1668 16.4119 24.1668 14.5001C24.1639 11.9372 23.1445 9.4801 21.3323 7.66787C19.52 5.85564 17.063 4.83627 14.5001 4.83339Z" fill="#999999"/>
</svg>
