<svg width="29" height="29" viewBox="0 0 29 29" fill="none" xmlns="http://www.w3.org/2000/svg">
<path d="M6.04199 7.25004C5.37465 7.25004 4.83366 7.79103 4.83366 8.45837V20.5417C4.83366 21.209 5.37465 21.75 6.04199 21.75H22.9587C23.626 21.75 24.167 21.209 24.167 20.5417V8.45837C24.167 7.79103 23.626 7.25004 22.9587 7.25004H6.04199ZM6.04199 4.83337H22.9587C24.9607 4.83337 26.5837 6.45634 26.5837 8.45837V20.5417C26.5837 22.5437 24.9607 24.1667 22.9587 24.1667H6.04199C4.03996 24.1667 2.41699 22.5437 2.41699 20.5417V8.45837C2.41699 6.45634 4.03996 4.83337 6.04199 4.83337Z" fill="#333333"/>
<path d="M24.167 8.45837C24.167 7.79102 23.626 7.25004 22.9587 7.25004H6.04199C5.37465 7.25004 4.83366 7.79102 4.83366 8.45837V8.84012L14.5003 12.5994L24.167 8.84012V8.45837ZM6.04199 4.83337H22.9587C24.9607 4.83337 26.5837 6.45634 26.5837 8.45837V9.6667C26.5837 10.165 26.2777 10.6123 25.8133 10.7929L14.9383 15.022C14.6566 15.1316 14.3441 15.1316 14.0624 15.022L3.18737 10.7929C2.72292 10.6123 2.41699 10.165 2.41699 9.6667V8.45837C2.41699 6.45634 4.03996 4.83337 6.04199 4.83337Z" fill="#333333"/>
</svg>
