<svg width="55" height="55" viewBox="0 0 55 55" fill="none" xmlns="http://www.w3.org/2000/svg">
<rect width="55" height="55" rx="12" fill="#EBDCFF"/>
<path d="M39.4042 36.5323L37.8584 34.901V26.8354H30.0417L26.2792 22.9385H37.8584V19.7062H23.1876L21.1751 17.6521H37.8584C38.4029 17.6521 38.8695 17.8534 39.2584 18.2562C39.6473 18.659 39.8417 19.1423 39.8417 19.7062V35.2937C39.8417 35.5354 39.8029 35.7569 39.7251 35.9583C39.6473 36.1597 39.5404 36.351 39.4042 36.5323ZM24.8209 26.8354H18.1417V35.2937H32.9876L24.8209 26.8354ZM37.8001 40.2781L35.0001 37.3479H18.1417C17.6167 37.3479 17.1549 37.1415 16.7563 36.7286C16.3577 36.3158 16.1584 35.8375 16.1584 35.2937V19.7062C16.1584 19.1826 16.3383 18.7194 16.698 18.3166C17.0577 17.9139 17.4904 17.6923 17.9959 17.6521H18.5792L20.5626 19.7062H18.1417V22.9385H21.0584L14.7292 16.3833L16.0417 15.0239L39.1126 38.9187L37.8001 40.2781Z" fill="#8000E5"/>
</svg>
