<svg width="23" height="23" viewBox="0 0 23 23" fill="none" xmlns="http://www.w3.org/2000/svg">
<path d="M11.5959 17.0818C11.8514 17.0818 12.071 16.99 12.2547 16.8063C12.4384 16.6226 12.5302 16.395 12.5302 16.1235C12.5302 15.852 12.4384 15.6244 12.2547 15.4407C12.071 15.257 11.8434 15.1652 11.5719 15.1652C11.3164 15.1652 11.0967 15.257 10.9131 15.4407C10.7294 15.6244 10.6375 15.852 10.6375 16.1235C10.6375 16.395 10.7294 16.6226 10.9131 16.8063C11.0967 16.99 11.3243 17.0818 11.5959 17.0818ZM10.7094 13.5839H12.1948C12.1948 13.1686 12.2467 12.7893 12.3506 12.4459C12.4544 12.1025 12.7698 11.7152 13.2969 11.2839C13.792 10.8846 14.1434 10.4813 14.3511 10.074C14.5587 9.66673 14.6625 9.2235 14.6625 8.74434C14.6625 7.88184 14.391 7.19503 13.8479 6.68392C13.3049 6.17281 12.5702 5.91725 11.6438 5.91725C10.8611 5.91725 10.1624 6.11691 9.54743 6.51621C8.9325 6.91552 8.48927 7.46656 8.21774 8.16934L9.55941 8.69642C9.75107 8.2492 10.0186 7.9018 10.362 7.65423C10.7054 7.40666 11.1087 7.28288 11.5719 7.28288C12.067 7.28288 12.4743 7.42264 12.7938 7.70215C13.1132 7.98166 13.2729 8.34503 13.2729 8.79225C13.2729 9.12767 13.1731 9.45111 12.9735 9.76257C12.7738 10.074 12.4823 10.3815 12.099 10.685C11.6358 11.1002 11.2884 11.5155 11.0568 11.9308C10.8252 12.3461 10.7094 12.8971 10.7094 13.5839ZM11.5 21.2266C10.1743 21.2266 8.91653 20.9711 7.7266 20.46C6.53666 19.9489 5.50246 19.2541 4.62399 18.3756C3.74552 17.4971 3.05073 16.4669 2.53962 15.285C2.0285 14.103 1.77295 12.8412 1.77295 11.4995C1.77295 10.1579 2.0285 8.89208 2.53962 7.70215C3.05073 6.51222 3.74552 5.48201 4.62399 4.61152C5.50246 3.74104 6.53267 3.05024 7.71462 2.53913C8.89656 2.02802 10.1584 1.77246 11.5 1.77246C12.8417 1.77246 14.1075 2.02802 15.2974 2.53913C16.4874 3.05024 17.5176 3.74104 18.3881 4.61152C19.2585 5.48201 19.9493 6.50822 20.4604 7.69017C20.9716 8.87211 21.2271 10.1419 21.2271 11.4995C21.2271 12.8412 20.9716 14.103 20.4604 15.285C19.9493 16.4669 19.2585 17.4971 18.3881 18.3756C17.5176 19.2541 16.4914 19.9489 15.3094 20.46C14.1275 20.9711 12.8577 21.2266 11.5 21.2266ZM11.5 19.5975C13.7521 19.5975 15.6648 18.8068 17.2381 17.2256C18.8113 15.6443 19.5979 13.7357 19.5979 11.4995C19.5979 9.24746 18.8113 7.33479 17.2381 5.76152C15.6648 4.18826 13.7521 3.40163 11.5 3.40163C9.26392 3.40163 7.35524 4.18826 5.77399 5.76152C4.19274 7.33479 3.40212 9.24746 3.40212 11.4995C3.40212 13.7357 4.19274 15.6443 5.77399 17.2256C7.35524 18.8068 9.26392 19.5975 11.5 19.5975Z" fill="#8000E5"/>
</svg>
