<svg width="63" height="64" viewBox="0 0 63 64" fill="none" xmlns="http://www.w3.org/2000/svg">
<rect y="0.907715" width="62.3238" height="62.3238" rx="30" fill="#EBDCFF"/>
<path d="M17.5657 44.0646C16.8719 44.0646 16.2617 43.8012 15.7349 43.2745C15.2082 42.7478 14.9448 42.1375 14.9448 41.4438V21.5563C14.9448 20.8368 15.2082 20.2201 15.7349 19.7063C16.2617 19.1924 16.8719 18.9354 17.5657 18.9354H43.6198C44.3393 18.9354 44.9559 19.1924 45.4698 19.7063C45.9837 20.2201 46.2407 20.8368 46.2407 21.5563V41.4438C46.2407 42.1375 45.9837 42.7478 45.4698 43.2745C44.9559 43.8012 44.3393 44.0646 43.6198 44.0646H17.5657ZM30.5927 32.5021L43.6198 23.9073V21.5563L30.5927 29.9583L17.5657 21.5563V23.9073L30.5927 32.5021Z" fill="#8000E5"/>
</svg>
