<svg width="18" height="25" viewBox="0 0 18 25" fill="none" xmlns="http://www.w3.org/2000/svg">
<path d="M9.06429 4.5625C8.42143 4.5625 7.86964 4.33854 7.40893 3.89063C6.94821 3.44271 6.71786 2.90625 6.71786 2.28125C6.71786 1.65625 6.94821 1.11979 7.40893 0.671875C7.86964 0.223958 8.42143 0 9.06429 0C9.70714 0 10.2589 0.223958 10.7196 0.671875C11.1804 1.11979 11.4107 1.65625 11.4107 2.28125C11.4107 2.90625 11.1804 3.44271 10.7196 3.89063C10.2589 4.33854 9.70714 4.5625 9.06429 4.5625ZM15.9429 25V18.4688H9.06429C8.42143 18.4688 7.875 18.25 7.425 17.8125C6.975 17.375 6.75 16.8438 6.75 16.2188V8.5C6.75 7.875 6.975 7.34375 7.425 6.90625C7.875 6.46875 8.42143 6.25 9.06429 6.25C9.55714 6.25 9.975 6.34375 10.3179 6.53125C10.6607 6.71875 11.0679 7.08333 11.5393 7.625C12.4393 8.64583 13.425 9.5 14.4964 10.1875C15.5679 10.875 16.7357 11.2396 18 11.2812V13.1562C16.9071 13.1562 15.7821 12.8958 14.625 12.375C13.4679 11.8542 12.3536 11.1562 11.2821 10.2812V16H15.5571C16.2 16 16.7464 16.2188 17.1964 16.6562C17.6464 17.0938 17.8714 17.625 17.8714 18.25V25H15.9429ZM6.3 25C4.52143 25 3.02679 24.4115 1.81607 23.2344C0.605357 22.0573 0 20.6042 0 18.875C0 17.4583 0.530357 16.151 1.59107 14.9531C2.65179 13.7552 4.05 13.0625 5.78571 12.875V14.7812C4.62857 14.8854 3.70179 15.349 3.00536 16.1719C2.30893 16.9948 1.96071 17.8958 1.96071 18.875C1.96071 20.0833 2.37321 21.0938 3.19821 21.9062C4.02321 22.7188 5.05714 23.125 6.3 23.125C7.30714 23.125 8.23929 22.7865 9.09643 22.1094C9.95357 21.4323 10.425 20.5312 10.5107 19.4062H12.4714C12.3 21.0729 11.5929 22.4219 10.35 23.4531C9.10714 24.4844 7.75714 25 6.3 25Z" fill="black"/>
</svg>
