<svg width="26" height="22" viewBox="0 0 26 22" fill="none" xmlns="http://www.w3.org/2000/svg">
<path d="M3.51952 21.1171H22.2903C23.2237 21.1171 24.1189 20.7463 24.779 20.0863C25.439 19.4262 25.8098 18.531 25.8098 17.5976V3.51952C25.8098 2.58608 25.439 1.69088 24.779 1.03084C24.1189 0.370806 23.2237 0 22.2903 0H3.51952C2.58608 0 1.69088 0.370806 1.03084 1.03084C0.370805 1.69088 0 2.58608 0 3.51952V17.5976C0 18.531 0.370805 19.4262 1.03084 20.0863C1.69088 20.7463 2.58608 21.1171 3.51952 21.1171ZM2.34635 3.51952C2.34635 3.20837 2.46995 2.90997 2.68996 2.68996C2.90997 2.46995 3.20837 2.34635 3.51952 2.34635H22.2903C22.6014 2.34635 22.8998 2.46995 23.1198 2.68996C23.3399 2.90997 23.4635 3.20837 23.4635 3.51952V17.5976C23.4635 17.9087 23.3399 18.2071 23.1198 18.4272C22.8998 18.6472 22.6014 18.7708 22.2903 18.7708H3.51952C3.20837 18.7708 2.90997 18.6472 2.68996 18.4272C2.46995 18.2071 2.34635 17.9087 2.34635 17.5976V3.51952Z" fill="#999999"/>
<path d="M5.86641 16.4244H9.38593C9.69707 16.4244 9.99547 16.3008 10.2155 16.0808C10.4355 15.8608 10.5591 15.5624 10.5591 15.2512C10.5591 14.9401 10.4355 14.6417 10.2155 14.4217C9.99547 14.2017 9.69707 14.0781 9.38593 14.0781H5.86641C5.55526 14.0781 5.25686 14.2017 5.03685 14.4217C4.81684 14.6417 4.69324 14.9401 4.69324 15.2512C4.69324 15.5624 4.81684 15.8608 5.03685 16.0808C5.25686 16.3008 5.55526 16.4244 5.86641 16.4244Z" fill="#999999"/>
<path d="M5.86641 12.9049H12.9054C13.2166 12.9049 13.515 12.7813 13.735 12.5613C13.955 12.3413 14.0786 12.0429 14.0786 11.7317C14.0786 11.4206 13.955 11.1222 13.735 10.9022C13.515 10.6822 13.2166 10.5586 12.9054 10.5586H5.86641C5.55527 10.5586 5.25686 10.6822 5.03685 10.9022C4.81684 11.1222 4.69324 11.4206 4.69324 11.7317C4.69324 12.0429 4.81684 12.3413 5.03685 12.5613C5.25686 12.7813 5.55527 12.9049 5.86641 12.9049Z" fill="#999999"/>
</svg>
