<svg width="89" height="89" viewBox="0 0 89 89" fill="none" xmlns="http://www.w3.org/2000/svg">
<rect y="44.0696" width="62.3238" height="62.3238" rx="30" transform="rotate(-45 0 44.0696)" fill="#EBDCFF"/>
<path d="M45.5832 55.2874C43.8026 57.068 41.6703 57.9626 39.1861 57.9713C36.7019 57.9799 34.5757 57.1001 32.8075 55.3319C31.0393 53.5637 30.1595 51.4375 30.1681 48.9533C30.1768 46.4692 31.0714 44.3368 32.852 42.5562C34.3833 41.0249 36.1208 40.1538 38.0645 39.943C40.0082 39.7322 41.7948 40.032 43.4244 40.8426L54.3751 29.8919L58.2475 33.7643L55.4163 36.5955L59.8457 41.0249L56.4804 44.3902L52.051 39.9608L47.2969 44.715C48.1074 46.3446 48.4073 48.1312 48.1964 50.0749C47.9856 52.0186 47.1145 53.7561 45.5832 55.2874ZM41.0212 50.7254C41.5376 50.209 41.797 49.6048 41.7994 48.9128C41.8018 48.2208 41.5466 47.6184 41.0338 47.1056C40.521 46.5928 39.9186 46.3376 39.2266 46.34C38.5346 46.3424 37.9304 46.6018 37.414 47.1182C36.8977 47.6346 36.6383 48.2388 36.6359 48.9308C36.6334 49.6228 36.8886 50.2252 37.4014 50.738C37.9142 51.2508 38.5166 51.506 39.2086 51.5036C39.9006 51.5011 40.5048 51.2418 41.0212 50.7254Z" fill="#8000E5"/>
</svg>
