<svg width="23" height="22" viewBox="0 0 23 22" fill="none" xmlns="http://www.w3.org/2000/svg">
<path d="M20.5253 22L12.5499 14.0547C11.9681 14.5563 11.2759 14.9476 10.4733 15.2285C9.67077 15.5093 8.81806 15.6498 7.91519 15.6498C5.70816 15.6498 3.83721 14.8874 2.30233 13.3625C0.767442 11.8377 0 9.99179 0 7.8249C0 5.658 0.767442 3.81213 2.30233 2.28728C3.83721 0.762426 5.6881 0 7.85499 0C10.0219 0 11.8678 0.762426 13.3926 2.28728C14.9175 3.81213 15.6799 5.658 15.6799 7.8249C15.6799 8.68764 15.5394 9.52029 15.2586 10.3228C14.9777 11.1254 14.5663 11.8778 14.0246 12.58L22.0301 20.4952L20.5253 22ZM7.88509 13.6033C9.47013 13.6033 10.8194 13.0365 11.933 11.9029C13.0465 10.7693 13.6033 9.40994 13.6033 7.8249C13.6033 6.23985 13.0465 4.88053 11.933 3.74692C10.8194 2.61332 9.47013 2.04651 7.88509 2.04651C6.25992 2.04651 4.88555 2.61332 3.76197 3.74692C2.6384 4.88053 2.07661 6.23985 2.07661 7.8249C2.07661 9.40994 2.6384 10.7693 3.76197 11.9029C4.88555 13.0365 6.25992 13.6033 7.88509 13.6033Z" fill="#898989"/>
</svg>
