<svg width="25" height="25" viewBox="0 0 25 25" fill="none" xmlns="http://www.w3.org/2000/svg">
<path d="M20.4545 0H4.54545C3.33992 0 2.18377 0.478859 1.33133 1.33123C0.478895 2.18361 0 3.33968 0 4.54512V12.4991C0 12.8004 0.119724 13.0894 0.332833 13.3025C0.545943 13.5156 0.834981 13.6354 1.13636 13.6354H6.81818V23.8619C6.81764 24.0792 6.87945 24.2921 6.99627 24.4754C7.11309 24.6587 7.28002 24.8046 7.47727 24.8959C7.67498 24.9869 7.89468 25.0192 8.11023 24.989C8.32578 24.9588 8.52811 24.8673 8.69318 24.7254L11.9318 21.9529L15.1705 24.7254C15.3763 24.9015 15.6382 24.9982 15.9091 24.9982C16.1799 24.9982 16.4419 24.9015 16.6477 24.7254L19.8864 21.9529L23.125 24.7254C23.3308 24.9015 23.5928 24.9982 23.8636 24.9981C24.028 24.997 24.1905 24.9622 24.3409 24.8959C24.5382 24.8046 24.7051 24.6587 24.8219 24.4754C24.9387 24.2921 25.0005 24.0792 25 23.8619V4.54512C25 3.33968 24.5211 2.18361 23.6687 1.33123C22.8162 0.478859 21.6601 0 20.4545 0V0ZM2.27273 11.3628V4.54512C2.27273 3.9424 2.51217 3.36436 2.93839 2.93818C3.36461 2.51199 3.94269 2.27256 4.54545 2.27256C5.14822 2.27256 5.7263 2.51199 6.15251 2.93818C6.57873 3.36436 6.81818 3.9424 6.81818 4.54512V11.3628H2.27273ZM22.7273 21.3961L20.625 19.5895C20.4192 19.4134 20.1572 19.3167 19.8864 19.3167C19.6155 19.3167 19.3536 19.4134 19.1477 19.5895L15.9091 22.362L12.6705 19.5895C12.4646 19.4134 12.2027 19.3167 11.9318 19.3167C11.661 19.3167 11.399 19.4134 11.1932 19.5895L9.09091 21.3961V4.54512C9.08949 3.74686 8.87785 2.96305 8.47727 2.27256H20.4545C21.0573 2.27256 21.6354 2.51199 22.0616 2.93818C22.4878 3.36436 22.7273 3.9424 22.7273 4.54512V21.3961ZM20.4545 5.6814C20.4545 5.98276 20.3348 6.27177 20.1217 6.48487C19.9086 6.69796 19.6196 6.81768 19.3182 6.81768H12.5C12.1986 6.81768 11.9096 6.69796 11.6965 6.48487C11.4834 6.27177 11.3636 5.98276 11.3636 5.6814C11.3636 5.38004 11.4834 5.09102 11.6965 4.87793C11.9096 4.66483 12.1986 4.54512 12.5 4.54512H19.3182C19.6196 4.54512 19.9086 4.66483 20.1217 4.87793C20.3348 5.09102 20.4545 5.38004 20.4545 5.6814ZM20.4545 10.2265C20.4545 10.5279 20.3348 10.8169 20.1217 11.03C19.9086 11.2431 19.6196 11.3628 19.3182 11.3628H12.5C12.1986 11.3628 11.9096 11.2431 11.6965 11.03C11.4834 10.8169 11.3636 10.5279 11.3636 10.2265C11.3636 9.92515 11.4834 9.63614 11.6965 9.42304C11.9096 9.20995 12.1986 9.09023 12.5 9.09023H19.3182C19.6196 9.09023 19.9086 9.20995 20.1217 9.42304C20.3348 9.63614 20.4545 9.92515 20.4545 10.2265ZM20.4545 14.7716C20.4545 15.073 20.3348 15.362 20.1217 15.5751C19.9086 15.7882 19.6196 15.9079 19.3182 15.9079H12.5C12.1986 15.9079 11.9096 15.7882 11.6965 15.5751C11.4834 15.362 11.3636 15.073 11.3636 14.7716C11.3636 14.4703 11.4834 14.1813 11.6965 13.9682C11.9096 13.7551 12.1986 13.6354 12.5 13.6354H19.3182C19.6196 13.6354 19.9086 13.7551 20.1217 13.9682C20.3348 14.1813 20.4545 14.4703 20.4545 14.7716Z" fill="#999999"/>
</svg>
