<svg width="79" height="26" viewBox="0 0 79 26" fill="none" xmlns="http://www.w3.org/2000/svg">
<path d="M73.8814 0.999252C75.591 8.96534 77.2888 16.8791 78.9999 24.8452H73.1747C72.9533 23.833 72.7201 22.8491 72.5295 21.8567C72.4533 21.4651 72.2994 21.311 71.8624 21.3138C69.493 21.3336 67.1236 21.3322 64.7543 21.3153C64.3481 21.3124 64.1385 21.4312 64.0109 21.8129C63.7191 22.6865 63.401 23.5517 63.0491 24.4042C62.9699 24.5978 62.7118 24.8551 62.533 24.8579C60.4847 24.8905 58.4364 24.8777 56.2752 24.8777C56.7517 23.7581 57.1887 22.719 57.6344 21.6842C60.2985 15.4909 62.964 9.29897 65.6325 3.10705C66.3055 1.54635 67.15 1.00067 68.8831 0.997839C70.5179 0.995011 72.1527 0.997839 73.8814 0.997839V0.999252ZM69.4857 7.72272C69.4227 7.71565 69.3596 7.70717 69.2966 7.7001C68.2233 10.5755 67.15 13.4524 66.0445 16.4126H71.3493C70.7173 13.4637 70.1015 10.5939 69.4857 7.72272Z" fill="#898989"/>
<path d="M16.9288 17.262C18.0915 14.4008 19.1765 11.7331 20.26 9.06411C21.3465 6.39225 22.4329 3.72181 23.5282 1.02592H30.0997C30.0191 1.27331 29.9721 1.47264 29.8915 1.66066C26.6527 9.1772 23.4065 16.6909 20.1823 24.2131C19.9638 24.722 19.7102 24.9086 19.1266 24.8945C17.3203 24.8493 15.5124 24.8691 13.7046 24.8818C13.3322 24.8846 13.1548 24.8026 13.0521 24.4139C11.6988 19.2398 10.3235 14.07 8.94971 8.90012C8.63447 7.71546 8.30311 6.53362 7.98055 5.35037C7.76062 4.54599 7.2709 3.93386 6.46596 3.64971C4.66106 3.01073 2.8327 2.43112 1.02341 1.80486C0.797613 1.72711 0.626067 1.50799 0.429596 1.35389C0.67152 1.23373 0.913443 1.01178 1.15683 1.01037C4.45433 0.989165 7.75182 0.996233 11.0493 1.00047C12.7545 1.0033 13.9143 1.94481 14.2222 3.54793C15.0608 7.91761 15.9039 12.2873 16.7484 16.657C16.7748 16.7913 16.8262 16.9213 16.9303 17.262H16.9288Z" fill="#898989"/>
<path d="M39.5701 18.8312C40.0129 19.0164 40.3619 19.1634 40.7123 19.309C42.7752 20.1657 44.9203 20.5163 47.1475 20.1926C47.7354 20.1064 48.3424 19.9014 48.8541 19.6116C50.1737 18.8637 50.3086 17.3539 49.099 16.4421C48.2808 15.8257 47.3175 15.3903 46.4275 14.8602C45.4745 14.2947 44.4775 13.7801 43.5919 13.1284C39.9308 10.434 40.6727 6.2438 42.8823 3.86033C44.5728 2.03527 46.7765 1.16444 49.2192 0.774268C51.9214 0.341682 54.565 0.593317 57.144 1.46697C57.3405 1.53341 57.6323 1.80908 57.6074 1.93773C57.3068 3.48005 56.9534 5.01107 56.6382 6.43606C55.0738 6.13495 53.59 5.79425 52.0871 5.57796C50.9435 5.41397 49.7837 5.51293 48.7441 6.07699C47.3249 6.84603 47.2002 8.17206 48.5242 9.06975C49.5564 9.76952 50.7015 10.3166 51.8012 10.9245C53.1618 11.6766 54.4667 12.4909 55.433 13.7222C57.1646 15.9275 56.6807 19.5791 54.9667 21.6388C53.1501 23.8229 50.6678 24.7432 47.9172 25.1136C44.8954 25.5193 41.9351 25.1716 39.0408 24.2513C38.6039 24.1113 38.4089 23.9629 38.5364 23.454C38.9118 21.954 39.2168 20.4372 39.5701 18.834V18.8312Z" fill="#898989"/>
<path d="M39.2381 1.03857C38.9947 2.19921 38.7704 3.32308 38.5241 4.4413C37.0755 11.0206 35.6137 17.5984 34.1827 24.1819C34.0639 24.7262 33.866 24.9058 33.2839 24.8944C31.457 24.8577 29.6286 24.8803 27.702 24.8803C29.4585 16.8902 31.1975 8.98629 32.9437 1.03857H39.2367H39.2381Z" fill="#898989"/>
</svg>
