<svg width="433" height="355" viewBox="0 0 433 355" fill="none" xmlns="http://www.w3.org/2000/svg">
<g filter="url(#filter0_d_49_669)">
<rect x="382.76" y="285" width="332.703" height="255" rx="80" transform="rotate(180 382.76 285)" fill="url(#paint0_linear_49_669)"/>
</g>
<rect x="403.445" y="284.908" width="373.445" height="254.908" rx="20" transform="rotate(180 403.445 284.908)" fill="url(#paint1_linear_49_669)"/>
<path d="M133.728 57.2733C135.521 65.6298 137.302 73.9314 139.097 82.2878H132.986C132.754 81.226 132.51 80.1939 132.31 79.1528C132.23 78.7421 132.068 78.5804 131.61 78.5834C129.124 78.6041 126.639 78.6027 124.153 78.5849C123.727 78.5819 123.507 78.7065 123.374 79.1069C123.067 80.0233 122.734 80.9309 122.365 81.8251C122.282 82.0283 122.011 82.2982 121.823 82.3012C119.675 82.3353 117.526 82.3219 115.259 82.3219C115.759 81.1474 116.217 80.0574 116.685 78.9719C119.479 72.4751 122.275 65.9797 125.075 59.4844C125.781 57.8472 126.667 57.2748 128.485 57.2718C130.199 57.2689 131.914 57.2718 133.728 57.2718V57.2733ZM129.117 64.3262C129.051 64.3188 128.984 64.3099 128.918 64.3025C127.792 67.3189 126.667 70.3367 125.507 73.442H131.072C130.409 70.3485 129.763 67.3381 129.117 64.3262Z" fill="#898989"/>
<path d="M73.9845 74.3333C75.2041 71.3318 76.3423 68.5335 77.4789 65.7337C78.6186 62.9309 79.7583 60.1296 80.9072 57.3016H87.8008C87.7162 57.5611 87.667 57.7702 87.5824 57.9674C84.1848 65.8523 80.7796 73.7342 77.3974 81.625C77.1682 82.1589 76.9022 82.3546 76.29 82.3398C74.3951 82.2923 72.4987 82.3131 70.6023 82.3264C70.2116 82.3294 70.0255 82.2434 69.9179 81.8356C68.4982 76.408 67.0555 70.9848 65.6144 65.5616C65.2837 64.3189 64.9361 63.0792 64.5977 61.8379C64.367 60.9941 63.8533 60.352 63.0089 60.0539C61.1156 59.3836 59.1976 58.7756 57.2997 58.1187C57.0628 58.0371 56.8829 57.8073 56.6768 57.6456C56.9305 57.5196 57.1843 57.2867 57.4396 57.2853C60.8987 57.263 64.3578 57.2704 67.8169 57.2749C69.6056 57.2778 70.8222 58.2655 71.1452 59.9472C72.025 64.531 72.9094 69.1148 73.7953 73.6986C73.823 73.8395 73.8768 73.9759 73.986 74.3333H73.9845Z" fill="#898989"/>
<path d="M97.736 75.9789C98.2005 76.1732 98.5666 76.3274 98.9342 76.4801C101.098 77.3788 103.348 77.7466 105.685 77.407C106.301 77.3165 106.938 77.1015 107.475 76.7975C108.859 76.013 109.001 74.4292 107.732 73.4727C106.874 72.8261 105.863 72.3694 104.929 71.8133C103.93 71.2201 102.884 70.6803 101.955 69.9967C98.1144 67.1701 98.8926 62.7747 101.21 60.2744C102.984 58.3599 105.296 57.4464 107.858 57.0371C110.693 56.5833 113.466 56.8473 116.171 57.7638C116.377 57.8335 116.683 58.1226 116.657 58.2576C116.342 59.8755 115.971 61.4815 115.64 62.9763C113.999 62.6605 112.443 62.3031 110.866 62.0762C109.667 61.9042 108.45 62.008 107.36 62.5997C105.871 63.4064 105.74 64.7974 107.129 65.7391C108.212 66.4732 109.413 67.0471 110.566 67.6847C111.994 68.4737 113.363 69.3278 114.376 70.6195C116.193 72.9329 115.685 76.7634 113.887 78.924C111.981 81.2152 109.378 82.1806 106.492 82.5692C103.322 82.9948 100.217 82.63 97.1808 81.6646C96.7224 81.5177 96.5179 81.362 96.6517 80.8282C97.0454 79.2547 97.3653 77.6635 97.736 75.9819V75.9789Z" fill="#898989"/>
<path d="M97.3875 57.3145C97.1322 58.532 96.8969 59.7109 96.6385 60.8839C95.1189 67.7856 93.5855 74.6858 92.0843 81.5919C91.9597 82.1629 91.7521 82.3512 91.1415 82.3393C89.2251 82.3008 87.3071 82.3245 85.2861 82.3245C87.1287 73.9428 88.9529 65.6516 90.7847 57.3145H97.386H97.3875Z" fill="#898989"/>
<defs>
<filter id="filter0_d_49_669" x="0.0566406" y="0" width="432.703" height="355" filterUnits="userSpaceOnUse" color-interpolation-filters="sRGB">
<feFlood flood-opacity="0" result="BackgroundImageFix"/>
<feColorMatrix in="SourceAlpha" type="matrix" values="0 0 0 0 0 0 0 0 0 0 0 0 0 0 0 0 0 0 127 0" result="hardAlpha"/>
<feOffset dy="20"/>
<feGaussianBlur stdDeviation="25"/>
<feComposite in2="hardAlpha" operator="out"/>
<feColorMatrix type="matrix" values="0 0 0 0 0.708333 0 0 0 0 0.708333 0 0 0 0 0.708333 0 0 0 0.6 0"/>
<feBlend mode="normal" in2="BackgroundImageFix" result="effect1_dropShadow_49_669"/>
<feBlend mode="normal" in="SourceGraphic" in2="effect1_dropShadow_49_669" result="shape"/>
</filter>
<linearGradient id="paint0_linear_49_669" x1="348.755" y1="370.494" x2="948.399" y2="884.604" gradientUnits="userSpaceOnUse">
<stop stop-color="white"/>
<stop offset="1" stop-color="#A8B2B9"/>
</linearGradient>
<linearGradient id="paint1_linear_49_669" x1="365.277" y1="370.371" x2="971.379" y2="953.864" gradientUnits="userSpaceOnUse">
<stop stop-color="white"/>
<stop offset="1" stop-color="#A8B2B9"/>
</linearGradient>
</defs>
</svg>
